<svg width="48" height="48" viewBox="0 0 48 48" fill="none" xmlns="http://www.w3.org/2000/svg">
<path d="M24.4228 31.2267L30.4346 25.215C31.9115 23.7307 32.1267 21.3037 30.7314 19.7525C30.3815 19.3616 29.9555 19.0462 29.4796 18.8255C29.0036 18.6047 28.4877 18.4834 27.9632 18.4688C27.4388 18.4542 26.9169 18.5467 26.4294 18.7406C25.9419 18.9345 25.499 19.2258 25.1279 19.5967L23.9998 20.7322L23.0275 19.7525C21.5432 18.2756 19.1162 18.0603 17.565 19.4557C17.1741 19.8056 16.8587 20.2315 16.638 20.7075C16.4172 21.1835 16.2959 21.6994 16.2813 22.2239C16.2667 22.7483 16.3592 23.2702 16.5531 23.7577C16.747 24.2452 17.0383 24.6881 17.4092 25.0592L23.5768 31.2267C23.6893 31.3382 23.8414 31.4008 23.9998 31.4008C24.1582 31.4008 24.3103 31.3382 24.4228 31.2267Z" fill="#FF621D"/>
</svg>
