<svg width="24" height="24" viewBox="0 0 24 24" fill="none" xmlns="http://www.w3.org/2000/svg">
<path d="M1.6001 17.5904C1.6001 16.5393 2.44609 15.7186 3.47209 15.7186C4.4981 15.7186 5.3448 16.5652 5.3448 17.5904C5.3448 18.6164 4.4981 19.4633 3.47209 19.4633C2.44609 19.4633 1.6001 18.6164 1.6001 17.5904ZM8.6273 18.7447C8.06353 18.7447 7.60129 18.2832 7.60129 17.7186C7.60129 17.1549 8.06353 16.6934 8.6273 16.6934H21.3742C21.9386 16.6934 22.4002 17.1549 22.4002 17.7186C22.4002 18.2832 21.9127 18.7447 21.3482 18.7447H8.6273ZM1.6001 11.9738C1.6001 10.9477 2.44609 10.1277 3.47209 10.1277C4.4981 10.1277 5.3448 10.9736 5.3448 11.9996C5.3448 13.0256 4.4981 13.8465 3.47209 13.8465C2.44609 13.8465 1.6001 12.9998 1.6001 11.9738ZM8.6273 13.0256C8.06353 13.0256 7.60129 12.5641 7.60129 11.9996C7.60129 11.4352 8.06353 10.9736 8.6273 10.9736H21.3742C21.9386 10.9736 22.4002 11.4352 22.4002 11.9996C22.4002 12.5641 21.9127 13.0256 21.3482 13.0256H8.6273ZM1.6001 6.38301C1.6001 5.35703 2.44609 4.53613 3.47209 4.53613C4.4981 4.53613 5.3448 5.38281 5.3448 6.40879C5.3448 7.43496 4.4981 8.28086 3.47209 8.28086C2.44609 8.28086 1.6001 7.43496 1.6001 6.38301ZM8.6273 7.28086C8.06353 7.28086 7.60129 6.81934 7.60129 6.25488C7.60129 5.69023 8.06353 5.22871 8.6273 5.22871H21.3742C21.9386 5.22871 22.4002 5.69023 22.4002 6.25488C22.4002 6.81934 21.9127 7.28086 21.3482 7.28086H8.6273Z" fill="white"/>
</svg>
