<svg width="33" height="32" viewBox="0 0 33 32" fill="none" xmlns="http://www.w3.org/2000/svg">
<path d="M26.5845 26H6.58447C6.05404 26 5.54533 25.7893 5.17026 25.4142C4.79519 25.0391 4.58447 24.5304 4.58447 24V10C4.58447 9.46957 4.79519 8.96086 5.17026 8.58579C5.54533 8.21071 6.05404 8 6.58447 8H10.5845L12.5845 5H20.5845L22.5845 8H26.5845C27.1149 8 27.6236 8.21071 27.9987 8.58579C28.3738 8.96086 28.5845 9.46957 28.5845 10V24C28.5845 24.5304 28.3738 25.0391 27.9987 25.4142C27.6236 25.7893 27.1149 26 26.5845 26Z" stroke="black" stroke-width="2" stroke-linecap="round" stroke-linejoin="round"/>
<path d="M16.5845 21C19.0698 21 21.0845 18.9853 21.0845 16.5C21.0845 14.0147 19.0698 12 16.5845 12C14.0992 12 12.0845 14.0147 12.0845 16.5C12.0845 18.9853 14.0992 21 16.5845 21Z" stroke="black" stroke-width="2" stroke-linecap="round" stroke-linejoin="round"/>
</svg>
