<svg width="24" height="24" viewBox="0 0 24 24" fill="none" xmlns="http://www.w3.org/2000/svg">
<path d="M6.68226 15.9259C6.694 15.9259 6.70552 15.9377 6.71725 15.9492C6.75224 15.9842 6.79874 16.0074 6.822 16.0539C6.85698 16.0772 6.88024 16.1004 6.90349 16.1354C6.95 16.2052 6.9965 16.2867 7.00824 16.3682C7.01997 16.3799 7.03149 16.3914 7.01997 16.4032C7.05496 16.4847 7.06648 16.5662 7.06648 16.6476V19.092L9.39373 17.5206C9.42872 17.4856 9.47522 17.4508 9.53346 17.4276C9.56845 17.4043 9.61496 17.3811 9.66146 17.3578C9.76621 17.3228 9.87096 17.2996 9.98722 17.2996C10.0105 17.2996 10.0337 17.2996 10.057 17.2996C10.2897 17.3228 10.4992 17.3346 10.732 17.3346H13.2687C15.084 17.3346 16.7247 16.6014 17.9232 15.4024C19.1102 14.2035 19.855 12.5738 19.855 10.7464C19.855 8.93053 19.1102 7.27783 17.9232 6.0789C16.7247 4.8917 15.084 4.14674 13.2687 4.14674H10.7318C8.90477 4.14674 7.27576 4.8917 6.07725 6.0789C4.87874 7.27783 4.14552 8.93074 4.14552 10.7464C4.14552 12.8646 5.13453 14.727 6.68226 15.9259ZM5.90253 21.5479C5.82104 21.5129 5.73954 21.4781 5.66978 21.4199C5.62328 21.3967 5.60002 21.3734 5.56504 21.3384C5.53005 21.3034 5.5068 21.2569 5.47202 21.2219C5.42552 21.1637 5.40226 21.0939 5.37901 21.024C5.35576 20.989 5.34402 20.9542 5.34402 20.9192C5.32077 20.861 5.32077 20.7912 5.32077 20.733V17.0551C3.52877 15.5535 2.40002 13.2836 2.40002 10.7462C2.40002 8.45308 3.33101 6.35794 4.84376 4.84476C6.34477 3.34332 8.42776 2.40039 10.7318 2.40039H13.2685C17.8648 2.40039 21.6 6.14844 21.6 10.7462C21.6 13.0508 20.6575 15.1345 19.1563 16.6359C17.6553 18.1491 15.5606 19.0803 13.2683 19.0803H10.7318C10.5573 19.0803 10.3827 19.0803 10.2198 19.0685L6.68226 21.4549C6.62402 21.4899 6.566 21.5247 6.50776 21.5479C6.46125 21.5712 6.41474 21.5829 6.36802 21.5829C6.25176 21.6062 6.13528 21.6062 6.01901 21.5829C5.98402 21.5829 5.93752 21.5714 5.90253 21.5479Z" fill="#666666"/>
</svg>
