<svg width="32" height="32" viewBox="0 0 32 32" fill="none" xmlns="http://www.w3.org/2000/svg">
<path fill-rule="evenodd" clip-rule="evenodd" d="M17.0366 4.4171L17.0502 4.40287C18.3947 3.01079 20.2474 2.15568 22.3912 2.13343C22.4075 2.13326 22.4238 2.13326 22.4401 2.13343C24.5718 2.15579 26.4235 3.01352 27.7653 4.40293L27.7788 4.41704C29.0745 5.78119 29.8666 7.64193 29.8666 9.60653C29.8666 10.7134 29.6126 11.8425 29.0847 12.9208C28.5567 13.999 24.6687 19.5589 24.6687 19.5589C24.47 19.9562 24.1625 20.2889 23.7822 20.5183L23.6276 20.6116C22.9137 21.0422 22.0248 21.0617 21.2927 20.6628L21.1216 20.5695C20.7007 20.3402 20.3601 19.9874 20.1457 19.5587C20.1457 19.5587 16.2507 13.9711 15.7397 12.9386C15.2287 11.9062 14.9489 10.7595 14.9489 9.60653C14.9489 7.64194 15.7411 5.78123 17.0366 4.4171ZM17.8384 11.8888C17.4658 11.1279 17.2956 10.3513 17.2956 9.60653C17.2956 8.26955 17.8384 6.98049 18.7382 6.03309C19.6537 5.08518 20.9103 4.49559 22.4155 4.47997C23.9051 4.49559 25.1619 5.08518 26.0773 6.03309C26.9771 6.98049 27.5199 8.26955 27.5199 9.60653C27.5199 10.3513 27.3497 11.1279 26.9771 11.8888L22.5972 18.4548C22.5795 18.4901 22.5521 18.5198 22.5182 18.5402C22.4546 18.5786 22.3754 18.5803 22.3102 18.5448L22.3049 18.5419C22.2655 18.5204 22.2337 18.4874 22.2136 18.4473L17.8384 11.8888Z" fill="#666666"/>
<path d="M21.9992 7.11796C22.127 6.72487 22.6831 6.72487 22.8108 7.11796L23.1731 8.23303C23.2302 8.40882 23.3941 8.52784 23.5789 8.52784H24.7513C25.1647 8.52784 25.3365 9.05675 25.0021 9.29969L24.0536 9.98884C23.9041 10.0975 23.8415 10.2901 23.8986 10.4659L24.2609 11.5809C24.3886 11.974 23.9387 12.3009 23.6043 12.058L22.6558 11.3688C22.5063 11.2602 22.3038 11.2602 22.1542 11.3688L21.2057 12.058C20.8713 12.3009 20.4214 11.974 20.5491 11.5809L20.9114 10.4659C20.9686 10.2901 20.906 10.0975 20.7564 9.98884L19.8079 9.29969C19.4735 9.05675 19.6454 8.52784 20.0587 8.52784H21.2311C21.416 8.52784 21.5798 8.40882 21.6369 8.23302L21.9992 7.11796Z" fill="#666666"/>
<path d="M6.78187 9.03294C6.78187 8.38492 7.30719 7.8596 7.9552 7.8596H11.1462C11.7942 7.8596 12.3195 8.38492 12.3195 9.03294C12.3195 9.68095 11.7942 10.2063 11.1462 10.2063H7.9552C7.30719 10.2063 6.78187 9.68095 6.78187 9.03294Z" fill="#666666"/>
<path fill-rule="evenodd" clip-rule="evenodd" d="M14.3686 18.0496C12.9909 18.3425 12.1115 19.6967 12.4044 21.0743C12.6972 22.452 14.0514 23.3314 15.429 23.0386C16.1253 22.8906 16.6928 22.4734 17.0486 21.9159C17.3972 21.3697 18.1227 21.2095 18.6689 21.5581C19.2152 21.9067 19.3754 22.6321 19.0268 23.1784C18.3466 24.2441 17.2531 25.0499 15.9169 25.334C13.2716 25.8962 10.6713 24.2076 10.109 21.5622C9.54668 18.9169 11.2353 16.3165 13.8807 15.7542C14.5146 15.6195 15.1376 16.0241 15.2723 16.658C15.4071 17.2918 15.0025 17.9149 14.3686 18.0496Z" fill="#666666"/>
<path d="M12.2903 12.0351H6.39997C4.04355 12.0351 2.1333 13.9454 2.1333 16.3018V25.6C2.1333 27.9564 4.04355 29.8667 6.39997 29.8667H23.4536C25.81 29.8667 27.7203 27.9564 27.7203 25.6V23.1555C27.7203 23.1517 27.7203 23.148 27.7203 23.1442C27.7203 22.4962 27.195 21.9709 26.547 21.9709C25.899 21.9709 25.3737 22.4962 25.3737 23.1442L25.3736 25.6C25.3736 26.6604 24.514 27.52 23.4536 27.52H6.39997C5.33958 27.52 4.47997 26.6604 4.47997 25.6V16.3018C4.47997 15.2414 5.33958 14.3818 6.39997 14.3818H12.2903C12.9383 14.3818 13.4636 13.8565 13.4636 13.2085C13.4636 12.5604 12.9383 12.0351 12.2903 12.0351Z" fill="#666666"/>
</svg>
