<svg width="24" height="24" viewBox="0 0 24 24" fill="none" xmlns="http://www.w3.org/2000/svg">
<path d="M11.1526 19.3737L19.5342 5.15688L19.6136 4.89179L19.4548 4.53412L19.0972 4.38833L18.8323 4.46778L4.63802 12.8417C4.43941 12.961 4.38648 13.0934 4.38648 13.2657L4.49234 13.5969C4.55862 13.6763 4.63802 13.7426 4.78369 13.7823L8.63679 14.6038C9.02088 14.6832 9.31199 14.9748 9.39163 15.359L10.2259 19.2146C10.2523 19.3735 10.3186 19.4398 10.398 19.5062L10.7289 19.6255C10.9144 19.6121 11.0334 19.5591 11.1526 19.3737ZM17.8262 2.74553C18.2234 2.50692 18.6735 2.38786 19.0975 2.40098C19.786 2.40098 20.4083 2.69256 20.8584 3.12968C21.2954 3.58017 21.5999 4.20293 21.5999 4.89179C21.5999 5.31579 21.4807 5.76628 21.2423 6.1638L12.8606 20.3807C12.3971 21.1888 11.5233 21.6128 10.7289 21.5997C10.186 21.5997 9.64316 21.4408 9.20613 21.0962C8.756 20.7651 8.41172 20.2482 8.27916 19.6255L7.59084 16.4057L4.37313 15.7166C3.75086 15.5973 3.23444 15.2397 2.90327 14.7892C2.57235 14.352 2.40021 13.8087 2.40021 13.2654C2.38685 12.4704 2.81077 11.6093 3.61829 11.1323L17.8262 2.74553Z" fill="#333333"/>
</svg>
