<svg xmlns="http://www.w3.org/2000/svg"
     width="15"
     height="11"
     viewBox="0 0 15 11">
  <path fill="#AEB7C0" d="M13.4486,4.1093L12.5372,1.9319C12.2647,1.2809 11.5033,0.8438 10.6418,0.8438H4.5673C3.7058,0.8438 2.9444,1.2809 2.6719,1.9319L1.7605,4.1093C1.2802,4.2695 0.9424,4.6473 0.9424,5.0882V7.7409C0.9424,8.1325 1.2115,8.471 1.6086,8.6551V9.278V9.8631C1.6086,10.1566 1.9064,10.3937 2.2748,10.3937H2.941C3.3094,10.3937 3.6072,10.1566 3.6072,9.8631V8.802H11.6019V9.8631C11.6019,10.1566 11.8997,10.3937 12.2681,10.3937H12.9343C13.3027,10.3937 13.6005,10.1566 13.6005,9.8631V8.6551C13.9976,8.471 14.2667,8.133 14.2667,7.7409V5.0882C14.2667,4.6473 13.9289,4.2695 13.4486,4.1093ZM4.5673,1.9049H10.6412C10.9283,1.9049 11.1828,2.0502 11.2734,2.2678L12.0102,4.0271H11.4813H3.7278H3.1989L3.935,2.2678C4.0263,2.0502 4.2808,1.9049 4.5673,1.9049ZM3.2741,7.2104C2.7225,7.2104 2.2748,6.8539 2.2748,6.4146C2.2748,5.9753 2.7225,5.6187 3.2741,5.6187C3.8258,5.6187 4.2735,5.9753 4.2735,6.4146C4.2735,6.8539 3.8258,7.2104 3.2741,7.2104ZM11.935,7.2104C11.3833,7.2104 10.9356,6.8539 10.9356,6.4146C10.9356,5.9753 11.3833,5.6187 11.935,5.6187C12.4866,5.6187 12.9343,5.9753 12.9343,6.4146C12.9343,6.8539 12.4866,7.2104 11.935,7.2104Z"/>
</svg>
