<svg width="16" height="16" viewBox="0 0 16 16" fill="none" xmlns="http://www.w3.org/2000/svg">
<path d="M1.06714 8.00145V8C1.06714 4.17056 4.1713 1.06641 8.00026 1.06641C11.8292 1.06641 14.9334 4.17056 14.9334 8C14.9334 11.829 11.8292 14.9331 8.00026 14.9331C4.17274 14.9331 1.06858 11.8299 1.06714 8.00145ZM6.90202 2.44642C4.24762 2.9696 2.33242 5.29473 2.32714 8C2.32042 9.50672 2.91754 10.9534 3.98458 12.0171C5.89546 13.9319 8.89258 14.2304 11.1438 12.7304C13.395 11.2304 14.2734 8.34896 13.2419 5.84816C12.3534 3.69416 10.2606 2.3389 8.00148 2.33877C7.63777 2.33874 7.27004 2.37386 6.90202 2.44642ZM7.58698 8.57793C7.47274 8.46032 7.4113 8.30192 7.41562 8.13825V4.14608C7.41562 3.82352 7.67674 3.5624 7.99882 3.5624C8.32138 3.5624 8.5825 3.82352 8.5825 4.14608V7.50993L10.6595 7.51712C10.8236 7.51232 10.983 7.57329 11.1015 7.68704C11.2206 7.80033 11.2887 7.9568 11.2911 8.12096C11.2921 8.28273 11.2273 8.43776 11.1116 8.55104C10.9955 8.66385 10.839 8.72528 10.6772 8.72049L8.0209 8.76273C7.85722 8.76224 7.70074 8.69552 7.58698 8.57793Z" fill="#666666"/>
</svg>
