<svg width="32" height="32" viewBox="0 0 32 32" fill="none" xmlns="http://www.w3.org/2000/svg">
<path d="M26.9377 16.1544L24.2852 14.4316V10.2477H26.5044C26.5634 10.2489 26.6215 10.2616 26.6754 10.285C26.7292 10.3085 26.7778 10.3421 26.8183 10.3841C26.8588 10.4261 26.8903 10.4756 26.9111 10.5296C26.9318 10.5837 26.9414 10.6412 26.9393 10.6989V16.1544H26.9377ZM26.9377 19.6899C26.94 19.7478 26.9306 19.8055 26.9099 19.8597C26.8893 19.914 26.8578 19.9636 26.8173 20.0058C26.7768 20.0479 26.7281 20.0817 26.6741 20.1053C26.6201 20.1288 26.5619 20.1415 26.5028 20.1427H25.0743C24.887 19.6026 24.5317 19.1334 24.0583 18.8012C23.5849 18.4689 23.0171 18.2903 22.4348 18.2903C21.8524 18.2903 21.2847 18.4689 20.8113 18.8012C20.3379 19.1334 19.9826 19.6026 19.7952 20.1427H17.8562V15.7048H22.6264C22.6875 15.7048 22.7485 15.699 22.8084 15.6875L26.9328 18.3332V19.6899H26.9377ZM22.4283 21.9602C22.2415 21.9624 22.0583 21.9101 21.9019 21.81C21.7455 21.71 21.623 21.5666 21.5499 21.3982C21.4769 21.2297 21.4566 21.0438 21.4917 20.8641C21.5268 20.6843 21.6156 20.5188 21.7469 20.3887C21.8782 20.2585 22.046 20.1695 22.2291 20.133C22.4121 20.0964 22.6021 20.1141 22.775 20.1836C22.9478 20.2531 23.0956 20.3714 23.1996 20.5234C23.3036 20.6754 23.3592 20.8543 23.3592 21.0373C23.3605 21.2805 23.2632 21.5143 23.0887 21.6874C22.9141 21.8604 22.6767 21.9585 22.4283 21.9602ZM17.8562 10.2477H22.4171V13.8763L17.8562 13.881V10.2477ZM16.001 20.1427H11.4385V10.3392H16.001V20.1427ZM8.65885 21.9602C8.47205 21.9624 8.2888 21.9101 8.1324 21.81C7.97599 21.71 7.85348 21.5666 7.78044 21.3982C7.7074 21.2297 7.68713 21.0438 7.7222 20.8641C7.75727 20.6843 7.8461 20.5188 7.9774 20.3887C8.10869 20.2585 8.27653 20.1695 8.45959 20.133C8.64264 20.0964 8.83265 20.1141 9.00546 20.1836C9.17827 20.2531 9.32608 20.3714 9.43011 20.5234C9.53413 20.6754 9.58968 20.8543 9.5897 21.0373C9.59098 21.2805 9.49369 21.5143 9.31916 21.6874C9.14464 21.8604 8.90715 21.9585 8.65885 21.9602ZM5.06267 19.6899V15.7048H9.51723C9.53756 15.7071 9.55809 15.7071 9.57843 15.7048V18.442C9.28374 18.339 8.97335 18.2857 8.66046 18.2843C8.07742 18.2858 7.50943 18.4657 7.03589 18.7989C6.56235 19.1321 6.20692 19.602 6.01929 20.1427H5.4975C5.43843 20.1415 5.38019 20.1288 5.3262 20.1053C5.27221 20.0817 5.22355 20.0479 5.18306 20.0058C5.14258 19.9636 5.11108 19.914 5.0904 19.8597C5.06973 19.8055 5.06031 19.7478 5.06267 19.6899ZM5.06267 10.6973C5.06053 10.6396 5.07011 10.5821 5.09088 10.528C5.11165 10.474 5.14319 10.4245 5.18366 10.3826C5.22412 10.3406 5.27271 10.3069 5.32659 10.2835C5.38047 10.26 5.43857 10.2474 5.4975 10.2461H9.57681V13.8747C9.55656 13.8823 9.53549 13.8876 9.51401 13.8905L5.06267 13.8747V10.6973ZM26.5044 8.42395H5.4975C5.19416 8.4254 4.89409 8.48541 4.61445 8.60056C4.33481 8.71571 4.08108 8.88374 3.86779 9.09503C3.65449 9.30632 3.48581 9.55674 3.37139 9.83195C3.25698 10.1072 3.19906 10.4018 3.20097 10.6989V19.6915C3.19906 19.9887 3.25698 20.2833 3.37139 20.5585C3.48581 20.8337 3.65449 21.0841 3.86779 21.2954C4.08108 21.5067 4.33481 21.6747 4.61445 21.7899C4.89409 21.905 5.19416 21.9651 5.4975 21.9665H6.03057C6.22306 22.4984 6.57904 22.9588 7.04954 23.2844C7.52005 23.61 8.08197 23.7849 8.65804 23.7849C9.23411 23.7849 9.79604 23.61 10.2665 23.2844C10.737 22.9588 11.093 22.4984 11.2855 21.9665H19.8065C19.999 22.4984 20.355 22.9588 20.8255 23.2844C21.296 23.61 21.8579 23.7849 22.434 23.7849C23.0101 23.7849 23.572 23.61 24.0425 23.2844C24.513 22.9588 24.869 22.4984 25.0615 21.9665H26.5012C26.8055 21.9663 27.1068 21.9071 27.3876 21.7925C27.6685 21.6778 27.9234 21.5098 28.1378 21.2982C28.3521 21.0866 28.5216 20.8356 28.6365 20.5596C28.7515 20.2836 28.8095 19.988 28.8074 19.6899V10.6973C28.8091 10.3998 28.7508 10.1048 28.6359 9.8294C28.521 9.55396 28.3517 9.30346 28.1377 9.09225C27.9238 8.88104 27.6694 8.71328 27.3891 8.5986C27.1088 8.48392 26.8082 8.42457 26.5044 8.42395Z" fill="#666666"/>
</svg>
