<svg width="20" height="20" viewBox="0 0 20 20" fill="none" xmlns="http://www.w3.org/2000/svg">
<path d="M10.0454 11.4243C10.8069 11.4243 11.4242 10.807 11.4242 10.0455C11.4242 9.28398 10.8069 8.66667 10.0454 8.66667C9.28394 8.66667 8.66663 9.28398 8.66663 10.0455C8.66663 10.807 9.28394 11.4243 10.0454 11.4243Z" fill="#333333"/>
<path d="M10.0454 4.7576C10.8069 4.7576 11.4242 4.14029 11.4242 3.3788C11.4242 2.61731 10.8069 2 10.0454 2C9.28394 2 8.66663 2.61731 8.66663 3.3788C8.66663 4.14029 9.28394 4.7576 10.0454 4.7576Z" fill="#333333"/>
<path d="M10.0454 18.0455C10.8069 18.0455 11.4242 17.4282 11.4242 16.6667C11.4242 15.9052 10.8069 15.2879 10.0454 15.2879C9.28394 15.2879 8.66663 15.9052 8.66663 16.6667C8.66663 17.4282 9.28394 18.0455 10.0454 18.0455Z" fill="#333333"/>
</svg>
