<svg width="20" height="20" viewBox="0 0 20 20" fill="none" xmlns="http://www.w3.org/2000/svg">
<path d="M1.33325 9.99992C1.33325 5.21313 5.21379 1.33374 9.99959 1.33374C14.7864 1.33374 18.6669 5.21313 18.6669 9.99992C18.6669 14.7867 14.7864 18.6672 9.99959 18.6672C5.21379 18.6672 1.33325 14.7867 1.33325 9.99992ZM3.33358 9.99992C3.33358 13.6757 6.32381 16.6671 9.99959 16.6671C13.6764 16.6671 16.6666 13.6757 16.6666 9.99992C16.6666 6.32414 13.6764 3.33293 9.99959 3.33293C6.32381 3.33293 3.33358 6.32414 3.33358 9.99992ZM9.99601 14.9994C9.41463 14.996 8.94523 14.5266 8.94067 13.9451V11.0588H6.06567C5.78182 11.068 5.5048 10.9594 5.302 10.7569C5.10181 10.5566 4.99211 10.2805 5.00122 9.9965C5.00448 9.41512 5.4742 8.94442 6.05461 8.93986H8.94295V6.05493C8.93612 5.77433 9.04582 5.50171 9.24504 5.30249C9.44295 5.10343 9.71541 4.99487 9.99601 5.00041C10.5777 5.00382 11.0471 5.47453 11.0507 6.05493C11.0507 6.05493 11.0484 7.69425 11.0507 8.94214H11.0549H13.9446C14.2262 8.93644 14.4989 9.04517 14.6982 9.24422C14.8971 9.44328 15.0058 9.71493 14.9989 9.9965C14.9957 10.578 14.526 11.0476 13.9446 11.051C13.9446 11.051 12.3053 11.0487 11.0585 11.051V13.9348C11.0686 14.2188 10.9589 14.4949 10.7574 14.6973C10.5653 14.892 10.3027 15.0006 10.0302 15.0006C10.0188 15.0006 10.0074 15.0006 9.99601 14.9994Z" fill="#EA0558"/>
</svg>
