<svg width="16" height="16" viewBox="0 0 16 16" fill="none" xmlns="http://www.w3.org/2000/svg">
<path d="M5.098 14.4001H5.09022C4.02869 14.3841 3.19995 13.5312 3.19995 12.4918C3.19995 12.4218 3.19995 12.3442 3.2151 12.2666V12.2511L3.37808 10.5989V10.5834C3.54105 9.31891 4.61818 8.37249 5.88861 8.36494H10.0957C11.3587 8.37249 12.4276 9.30335 12.5984 10.5599L12.6058 10.5754L12.7843 12.2432H12.7765C12.7921 12.3207 12.8 12.4058 12.8 12.4838C12.7921 13.5233 11.9629 14.3841 10.8936 14.3841L5.10579 14.4001H5.098ZM4.5328 10.715V10.7306L4.36981 12.3828V12.3983L4.36201 12.4918C4.36201 12.895 4.68752 13.2361 5.09845 13.2361H5.10579H5.12184L10.8936 13.2206C11.3045 13.2206 11.6374 12.8795 11.6374 12.4838L11.6296 12.3828L11.6218 12.3677L11.4437 10.7C11.3505 10.0327 10.7697 9.52842 10.0957 9.52842H5.88818C5.2068 9.52842 4.62555 10.0402 4.5328 10.715ZM5.08283 4.52477C5.08283 2.9111 6.39229 1.6001 8.01164 1.6001C9.62321 1.6001 10.9327 2.9111 10.9327 4.52477C10.9327 6.146 9.62321 7.45713 8.01164 7.45713C6.39229 7.45713 5.08283 6.146 5.08283 4.52477ZM6.24535 4.52477C6.24535 5.50173 7.03551 6.29359 8.01164 6.29359C8.97998 6.29359 9.77059 5.50173 9.77059 4.52477C9.77059 3.55485 8.97998 2.76351 8.01164 2.76351C7.03551 2.76351 6.24535 3.55485 6.24535 4.52477Z" fill="#666666"/>
</svg>
