<svg width="33" height="32" viewBox="0 0 33 32" fill="none" xmlns="http://www.w3.org/2000/svg">
<path d="M7.58496 29H25.585" stroke="black" stroke-width="2" stroke-linecap="round" stroke-linejoin="round"/>
<path d="M16.585 17C18.7941 17 20.585 15.2091 20.585 13C20.585 10.7909 18.7941 9 16.585 9C14.3758 9 12.585 10.7909 12.585 13C12.585 15.2091 14.3758 17 16.585 17Z" stroke="black" stroke-width="2" stroke-linecap="round" stroke-linejoin="round"/>
<path d="M26.585 13C26.585 22 16.585 29 16.585 29C16.585 29 6.58496 22 6.58496 13C6.58496 10.3478 7.63853 7.8043 9.51389 5.92893C11.3893 4.05357 13.9328 3 16.585 3C19.2371 3 21.7807 4.05357 23.656 5.92893C25.5314 7.8043 26.585 10.3478 26.585 13V13Z" stroke="black" stroke-width="2" stroke-linecap="round" stroke-linejoin="round"/>
</svg>
