<svg width="20" height="20" viewBox="0 0 20 20" fill="none" xmlns="http://www.w3.org/2000/svg">
<path d="M2.26596 9.25795L16.2872 9.25795L11.1988 4.16961C10.8784 3.90577 10.8407 3.43463 11.1046 3.11425C11.3684 2.79388 11.8396 2.75618 12.1599 3.02002C12.1976 3.05772 12.2165 3.07656 12.2542 3.11425L18.6429 9.50294C18.6806 9.54064 18.6994 9.57833 18.7183 9.61602C18.7371 9.63486 18.7371 9.65371 18.7559 9.67255C18.7748 9.6914 18.7748 9.71025 18.7936 9.74794C18.8125 9.76678 18.8125 9.80447 18.8125 9.82332C18.8125 9.84217 18.8313 9.86101 18.8313 9.87986C18.8502 9.97409 18.8502 10.0872 18.8313 10.1814C18.8313 10.2002 18.8125 10.2191 18.8125 10.2379C18.8125 10.2568 18.7936 10.2945 18.7936 10.3133C18.7748 10.3322 18.7748 10.3698 18.7559 10.3887C18.7371 10.4075 18.7371 10.4264 18.7183 10.4452C18.6994 10.4829 18.6617 10.5206 18.624 10.5583L12.273 16.9281C11.9715 17.2297 11.5003 17.2297 11.1988 16.9281C10.8973 16.6266 10.8973 16.1555 11.1988 15.8539L16.2872 10.7656L2.26595 10.7656C1.85135 10.7656 1.51213 10.4264 1.51213 10.0118C1.51213 9.59717 1.85135 9.25795 2.26596 9.25795Z" fill="#EA0558"/>
</svg>
