<svg width="24" height="24" viewBox="0 0 24 24" fill="none" xmlns="http://www.w3.org/2000/svg">
<path d="M6.84507 20.8082C5.34424 20.2953 4.1105 19.5734 3.29629 18.618C2.74907 17.9766 2.3999 17.1965 2.3999 16.3574C2.3999 15.5074 2.74907 14.7266 3.29629 14.0859C3.84277 13.4453 4.58799 12.9211 5.46016 12.4777C5.89072 12.2684 6.41445 12.4434 6.62422 12.8746C6.84507 13.3055 6.67051 13.8297 6.22817 14.0516C5.51816 14.4012 4.97163 14.8199 4.62251 15.216C4.28506 15.6238 4.1457 15.9855 4.1457 16.3578C4.1457 16.7187 4.28506 17.0805 4.62251 17.4883C4.95991 17.8961 5.50713 18.3031 6.21646 18.6648C7.64824 19.3754 9.70801 19.8531 12.0002 19.8531C13.7226 19.8531 15.3165 19.5844 16.6083 19.1531C17.9 18.7109 18.8771 18.0934 19.3773 17.4875C19.7154 17.0805 19.8548 16.7187 19.8548 16.3574C19.8548 15.9848 19.7147 15.6121 19.3545 15.1926C19.0054 14.7855 18.4465 14.3656 17.7137 14.016C17.2714 13.8062 17.0968 13.2934 17.2948 12.8512C17.5039 12.4199 18.0276 12.234 18.4582 12.4434C19.3545 12.8746 20.1226 13.3984 20.6808 14.0516C21.2397 14.6918 21.5999 15.4953 21.5999 16.3574C21.5999 17.1965 21.2508 17.9766 20.716 18.618C20.1688 19.259 19.436 19.7832 18.5631 20.2254C16.8291 21.0875 14.5368 21.5883 12.0002 21.6008C10.1034 21.6008 8.33418 21.309 6.84507 20.8082ZM11.965 18.1285C11.302 18.1406 10.6154 17.7676 10.2662 17.0922L6.97275 10.4859C6.56563 9.67031 6.3793 8.81953 6.3793 7.99296C6.3793 6.51288 6.96104 5.12656 7.95049 4.10078C8.93994 3.07578 10.3594 2.39999 11.965 2.39999C13.559 2.39999 14.9791 3.07578 15.9679 4.10078C16.9574 5.12656 17.5391 6.51288 17.5391 7.99296C17.5391 8.81953 17.3528 9.67031 16.9457 10.4859L13.6521 17.0914C13.3199 17.7574 12.6377 18.1289 11.995 18.1289C11.985 18.1289 11.975 18.1289 11.965 18.1285ZM9.20703 5.31288C8.53223 6.02343 8.1251 6.99023 8.1251 7.99296C8.1251 8.55156 8.25273 9.13398 8.53223 9.70468L11.8367 16.3109L11.965 16.3809L12.081 16.3109L15.3862 9.70468C15.6657 9.13398 15.7934 8.55156 15.7934 7.99296C15.7934 6.99023 15.3862 6.02343 14.7114 5.31288C14.0248 4.60195 13.0822 4.15976 11.965 4.14804C10.8361 4.15976 9.89365 4.60195 9.20703 5.31288Z" fill="#333333"/>
</svg>
