<svg width="18" height="18" viewBox="0 0 18 18" fill="none" xmlns="http://www.w3.org/2000/svg">
<path d="M9.98195 8.9969L15.3886 3.59167C15.6612 3.31915 15.6612 2.8773 15.3886 2.60478C15.116 2.33226 14.674 2.33226 14.4015 2.60478L8.9948 8.01001L3.58815 2.60478C3.31363 2.33419 2.87167 2.33731 2.601 2.61176C2.33033 2.88621 2.33346 3.32805 2.60798 3.59865L8.01463 9.00388L2.60798 14.4091C2.33538 14.6816 2.33538 15.1235 2.60797 15.396C2.88057 15.6685 3.32253 15.6685 3.59513 15.396L9.00178 9.99077L14.4084 15.396C14.681 15.6685 15.123 15.6685 15.3956 15.396C15.6682 15.1235 15.6682 14.6816 15.3956 14.4091L9.98195 8.9969Z" fill="#333333"/>
</svg>
