<svg width="17" height="24" viewBox="0 0 17 24" fill="none" xmlns="http://www.w3.org/2000/svg">
<path d="M8.5 0.75C12.7819 0.75 16.25 4.21297 16.25 8.48047C16.2499 9.49992 15.856 10.9434 15.1807 12.5967C14.5137 14.2292 13.6045 15.9904 12.6455 17.6152C11.6861 19.2406 10.6877 20.7118 9.84961 21.7676C9.42899 22.2975 9.06222 22.7053 8.77148 22.9736C8.66109 23.0755 8.56929 23.1462 8.5 23.1953C8.43071 23.1462 8.33891 23.0755 8.22852 22.9736C7.93778 22.7053 7.57101 22.2975 7.15039 21.7676C6.31228 20.7118 5.31387 19.2406 4.35449 17.6152C3.39547 15.9904 2.48629 14.2292 1.81934 12.5967C1.14396 10.9434 0.750121 9.49992 0.75 8.48047C0.75 4.21297 4.21813 0.75 8.5 0.75Z" stroke="#333333" stroke-width="1.5"/>
<path d="M8.63398 5.54C9.84598 5.54 11.118 6.08 11.946 6.932L10.842 8.276C10.266 7.616 9.43798 7.184 8.65798 7.184C7.21798 7.184 6.10198 8.3 6.10198 9.764C6.10198 11.228 7.21798 12.356 8.65798 12.356C9.41398 12.356 10.242 11.972 10.842 11.372L11.958 12.584C11.07 13.496 9.78598 14.084 8.56198 14.084C6.05398 14.084 4.15798 12.224 4.15798 9.788C4.15798 7.364 6.08998 5.54 8.63398 5.54Z" fill="#333333"/>
</svg>
