<svg width="40" height="40" viewBox="0 0 40 40" fill="none" xmlns="http://www.w3.org/2000/svg">
<rect width="40" height="40" rx="20" fill="#EA0558"/>
<path d="M23.3304 28.0007C22.9264 28.0007 22.5981 27.6803 22.5924 27.2821C22.5909 27.2706 22.5772 26.1568 22.5772 24.8061C22.5765 23.847 21.7896 23.0701 20.8183 23.0687H15.6386C15.172 23.0666 14.7235 23.2487 14.3923 23.5741C14.0611 23.8996 13.8746 24.3409 13.8739 24.8024C13.8739 26.1503 13.8739 27.2569 13.8739 27.2677C13.8731 27.4607 13.7954 27.6443 13.6564 27.7796C13.5182 27.915 13.331 27.9906 13.1359 27.9892C12.9408 27.9906 12.7535 27.9143 12.6153 27.7782C12.4771 27.6421 12.3993 27.4571 12.4 27.2641C12.4 27.2526 12.4 26.1518 12.4 24.8061C12.4022 23.0414 13.8515 21.6114 15.6386 21.6107H20.8183C22.6046 21.6128 24.0518 23.0414 24.0547 24.8053C24.0547 26.1467 24.0698 27.2504 24.0698 27.262C24.0727 27.4549 23.9971 27.6421 23.8603 27.7804C23.7235 27.9193 23.5363 27.9985 23.3404 28.0007H23.3304ZM24.8654 27.2389V13.5294C24.8654 13.127 25.1959 12.8008 25.6034 12.8008C26.0109 12.8008 26.3414 13.127 26.3414 13.5294V13.7519L31.6003 15.9537L26.3414 18.1489V27.2389C26.3414 27.6414 26.0109 27.9683 25.6034 27.9683C25.1959 27.9683 24.8654 27.6414 24.8654 27.2389ZM14.2663 16.9761C14.2663 14.8125 16.0425 13.0578 18.2335 13.0578C20.4252 13.0578 22.2014 14.8125 22.2014 16.9761C22.2014 19.1404 20.4252 20.8943 18.2335 20.8943C16.0432 20.8929 14.2684 19.1396 14.2663 16.9761ZM15.7437 16.9761C15.743 18.3347 16.859 19.437 18.2356 19.437C19.6116 19.4363 20.7268 18.3347 20.7268 16.9753C20.7261 15.6167 19.6101 14.5151 18.2335 14.5158C16.859 14.518 15.7451 15.6181 15.7437 16.9761Z" fill="white"/>
</svg>
