<svg width="20" height="20" viewBox="0 0 20 20" fill="none" xmlns="http://www.w3.org/2000/svg">
<path d="M12.9087 17.2731V16.3035H2.72732C2.32953 16.3035 2.00012 15.9837 2.00012 15.5763C2.00012 15.1785 2.32953 14.8491 2.72732 14.8491H12.9093V13.8789C12.9093 13.4816 13.2387 13.1517 13.6365 13.1517C14.0337 13.1517 14.3637 13.4816 14.3637 13.8789V14.8491H17.2725C17.6703 14.8491 17.9997 15.1785 17.9997 15.5763C17.9997 15.9837 17.6703 16.3035 17.2725 16.3035H14.3637V17.2731C14.3637 17.6805 14.0337 18.0003 13.6365 18.0003C13.2387 18.0003 12.9087 17.6805 12.9087 17.2731ZM5.63613 11.6973V10.7277H2.72732C2.32953 10.7277 2.00012 10.4072 2.00012 10.0005C2.00012 9.6027 2.32953 9.27327 2.72732 9.27327H5.63672V8.30306C5.63672 7.90592 5.96613 7.57585 6.36393 7.57585C6.76113 7.57585 7.09113 7.90592 7.09113 8.30371V9.27327H17.2725C17.6703 9.27327 17.9997 9.6027 17.9997 10.0005C17.9997 10.4072 17.6703 10.7277 17.2725 10.7277H7.09113V11.6973C7.09113 12.1047 6.76113 12.4245 6.36332 12.4245C5.96613 12.4245 5.63613 12.1047 5.63613 11.6973ZM9.27273 6.12142V5.15186H2.72732C2.32953 5.15186 2.00012 4.83203 2.00012 4.42464C2.00012 4.02751 2.32953 3.69743 2.72732 3.69743H9.27273V2.72721C9.27273 2.33008 9.60272 2 9.99992 2C10.3977 2 10.7271 2.33008 10.7271 2.72721V3.69743H17.2725C17.6703 3.69743 17.9997 4.02751 17.9997 4.42464C17.9997 4.83203 17.6703 5.15186 17.2725 5.15186H10.7271V6.12142C10.7271 6.52881 10.3977 6.84863 9.99992 6.84863C9.60272 6.84863 9.27273 6.52881 9.27273 6.12142Z" fill="white"/>
</svg>
