<svg width="32" height="32" viewBox="-5 -6 32 32" fill="none" xmlns="http://www.w3.org/2000/svg">
<path d="M10.7923 19.3814L10.2924 19.0543C9.87192 18.7795 0 12.2561 0 6.37344C0 2.18928 2.97336 0 5.91048 0C7.788 0 9.54672 0.87624 10.7916 2.3904C12.0326 0.87888 13.7938 0 15.6744 0C18.6115 0 21.5846 2.18928 21.5846 6.37344C21.5846 12.2561 11.7127 18.7798 11.2925 19.0546L10.7923 19.3814ZM5.91048 1.8276C3.94392 1.8276 1.8276 3.25032 1.8276 6.37344C1.8276 10.2017 7.8876 15.1814 10.7923 17.1881C13.697 15.1817 19.757 10.2017 19.757 6.37344C19.757 3.25008 17.6407 1.8276 15.6744 1.8276C14.0621 1.8276 12.6139 2.71896 11.7022 4.2732C11.6645 4.3356 11.633 4.39056 11.6004 4.45272L10.7933 5.9796L9.98472 4.45368C9.9516 4.39128 9.92016 4.33584 9.88968 4.28544C8.97048 2.71872 7.5228 1.8276 5.91048 1.8276Z" fill="black"/>
</svg>
