<svg width="24" height="24" viewBox="0 0 24 24" fill="none" xmlns="http://www.w3.org/2000/svg">
<path d="M12.3606 21.6C11.6162 21.6121 10.8244 21.193 10.4406 20.4133L6.32205 12.175C5.82178 11.1859 5.6001 10.1621 5.6001 9.1496C5.6001 7.38046 6.30996 5.69335 7.50886 4.44882C8.70691 3.20312 10.4061 2.39999 12.3606 2.39999C14.3038 2.39999 16.0142 3.20312 17.2019 4.44882C18.4 5.69335 19.1098 7.38046 19.1098 9.1496C19.1098 10.1621 18.889 11.1859 18.4 12.175L14.2693 20.4133C13.8909 21.182 13.1275 21.6 12.3919 21.6004C12.3814 21.6004 12.371 21.6 12.3606 21.6ZM8.76558 5.65898C7.86941 6.58945 7.34585 7.84609 7.34585 9.1496C7.34585 9.89374 7.50886 10.6504 7.88062 11.3953L12 19.6336C12.082 19.7965 12.1984 19.843 12.3614 19.8551C12.5124 19.843 12.6288 19.7965 12.7099 19.6336L16.8293 11.3953C17.2019 10.6504 17.3649 9.89374 17.3649 9.1496C17.3649 7.84609 16.8405 6.58945 15.9452 5.65898C15.049 4.73945 13.8156 4.14609 12.3606 4.14609C10.8943 4.14609 9.66172 4.73945 8.76558 5.65898ZM9.10281 9.04492C9.10281 7.2414 10.557 5.78632 12.3606 5.78632C14.1529 5.78632 15.6071 7.24062 15.6071 9.04492C15.6071 10.8367 14.1529 12.2918 12.3606 12.2918C10.557 12.2918 9.10281 10.8367 9.10281 9.04492ZM10.8477 9.04492C10.8477 9.87148 11.523 10.5457 12.3606 10.5457C13.1869 10.5457 13.8622 9.87148 13.8622 9.04492C13.8622 8.20663 13.1869 7.53202 12.3606 7.53202C11.523 7.53202 10.8477 8.20663 10.8477 9.04492Z" fill="#333333"/>
</svg>
