<svg width="10" height="20" viewBox="0 0 10 20" fill="none" xmlns="http://www.w3.org/2000/svg">
<path d="M8.84725 7.17769C9.05091 6.96621 9.05091 6.62775 8.84725 6.41627C8.64359 6.20479 5.37404 2.88111 5.37404 2.88111C5.27296 2.7823 5.14001 2.72431 5 2.71795C4.85788 2.71407 4.72121 2.77369 4.62596 2.88111L1.15275 6.41627C0.949085 6.62775 0.949085 6.96621 1.15274 7.17769C1.36052 7.38498 1.69305 7.38498 1.90082 7.17769L5 4.02324L8.09918 7.17769C8.09918 7.17769 8.63948 7.38498 8.84725 7.17769Z" fill="#666666"/>
<path d="M8.84725 12.8225C9.05091 13.0339 9.05091 13.3724 8.84725 13.5839L5.37404 17.119C5.27296 17.2178 5.14001 17.2758 5 17.2822C4.85788 17.2861 4.72121 17.2265 4.62596 17.119L1.15275 13.5839C0.949085 13.3724 0.949085 13.0339 1.15275 12.8225C1.36052 12.6152 1.69305 12.6152 1.90082 12.8225L5 15.9769L8.09918 12.8225C8.30695 12.6152 8.63948 12.6152 8.84725 12.8225V12.8225Z" fill="#666666"/>
</svg>
