<svg xmlns="http://www.w3.org/2000/svg"
     width="14"
     height="14"
     viewBox="0 0 14 14">
  <clipPath id="clip-path">
    <rect width="14" height="14" />
  </clipPath>
  <g clip-path="url(#clip-path)">
    <path fill="#AEB7C0" d="M5.9833,7.4084C5.8382,7.7985 5.4037,7.997 5.0135,7.8519C4.6234,7.7068 4.4249,7.2723 4.57,6.8821L5.5559,4.2528C5.6277,4.0599 5.7703,3.9138 5.9432,3.8331L8.408,2.6827C9.0217,2.3958 9.6639,3.0017 9.4353,3.6254L8.5989,5.8863L10.333,7.1992C10.6659,7.4506 10.7323,7.9247 10.481,8.2576C10.2296,8.5905 9.7554,8.6569 9.4225,8.4055L8.0511,7.367L7.9615,7.6095L9.7557,9.4037C9.8905,9.5386 9.9639,9.7115 9.9756,9.8878L10.3586,13.1635C10.4058,13.5781 10.108,13.9532 9.6933,14.0004C9.2787,14.0477 8.9037,13.7498 8.8564,13.3352L8.5003,10.2892L7.4932,9.2821L7.16,10.6151C7.125,10.7551 7.053,10.876 6.9572,10.9702L4.6791,13.4113C4.395,13.7166 3.917,13.7337 3.6118,13.4496C3.3065,13.1655 3.2894,12.6875 3.5734,12.3823L5.7406,10.06L6.3402,7.6603C6.3507,7.6054 6.3673,7.5512 6.39,7.4994L7.38,4.8266L6.8604,5.069L5.9833,7.4084Z" />
    <path fill="#AEB7C0" fill-rule="evenodd" d="M9.4185,0C10.0756,0 10.6083,0.5327 10.6083,1.1897C10.6083,1.8471 10.0756,2.3797 9.4185,2.3797C8.7612,2.3797 8.2285,1.8471 8.2285,1.1897C8.2285,0.5327 8.7612,0 9.4185,0V0Z" />
  </g>
</svg>
