<svg width="33" height="32" viewBox="0 0 33 32" fill="none" xmlns="http://www.w3.org/2000/svg">
<path d="M25.585 28C27.2418 28 28.585 26.6569 28.585 25C28.585 23.3431 27.2418 22 25.585 22C23.9281 22 22.585 23.3431 22.585 25C22.585 26.6569 23.9281 28 25.585 28Z" stroke="black" stroke-width="2" stroke-linecap="round" stroke-linejoin="round"/>
<path d="M9.58496 7H21.585C22.6458 7 23.6632 7.42143 24.4134 8.17157C25.1635 8.92172 25.585 9.93913 25.585 11C25.585 12.0609 25.1635 13.0783 24.4134 13.8284C23.6632 14.5786 22.6458 15 21.585 15H9.58496C8.25888 15 6.98711 15.5268 6.04943 16.4645C5.11175 17.4021 4.58496 18.6739 4.58496 20C4.58496 21.3261 5.11175 22.5979 6.04943 23.5355C6.98711 24.4732 8.25888 25 9.58496 25H22.585" stroke="black" stroke-width="2" stroke-linecap="round" stroke-linejoin="round"/>
</svg>
