<svg width="24" height="24" viewBox="0 0 24 24" fill="none" xmlns="http://www.w3.org/2000/svg">
<path d="M14.0048 14.9012L14.3888 14.5173C14.9861 13.9413 15.7541 13.6426 16.522 13.6426C17.29 13.6426 18.0793 13.9413 18.6553 14.5173L20.8739 16.7358C21.3645 17.2265 21.5992 17.8665 21.5992 18.5064C21.6205 19.3171 21.1725 20.1704 20.3619 20.6184C19.1673 21.2797 17.8447 21.5997 16.522 21.5997C14.4954 21.621 12.4475 20.8104 10.8689 19.2531L4.74648 13.1307C3.18921 11.5734 2.3999 9.52545 2.3999 7.47753C2.3999 6.15491 2.71989 4.8323 3.3812 3.63768C3.85051 2.82704 4.68248 2.40039 5.51445 2.40039C6.13309 2.40039 6.77307 2.63505 7.26372 3.1257L9.4823 5.34428C10.0796 5.94159 10.3569 6.70956 10.3569 7.47753C10.3569 8.2455 10.0583 9.03481 9.4823 9.61078L9.09831 9.99477L14.0048 14.9012ZM17.418 15.7546C17.1833 15.5199 16.842 15.3919 16.522 15.3919C16.202 15.3919 15.8821 15.5199 15.6261 15.7546L14.6234 16.7572C14.4528 16.9278 14.2395 17.0132 14.0048 17.0132C13.7701 17.0132 13.5568 16.9278 13.3862 16.7572L7.24239 10.6347C7.07173 10.4641 6.98639 10.2508 6.98639 10.0161C6.98639 9.78144 7.07173 9.56812 7.24239 9.39746L8.24501 8.39483C8.501 8.16017 8.60767 7.81885 8.60767 7.49886C8.60767 7.17888 8.501 6.85889 8.24501 6.6029L6.02643 4.36298C5.8771 4.21366 5.70644 4.14966 5.49312 4.14966C5.23713 4.17099 5.0238 4.25632 4.89581 4.49098C4.38383 5.42961 4.12784 6.45357 4.12784 7.49886C4.12784 9.0988 4.72515 10.6774 5.96243 11.9147L12.0849 18.0371C13.3008 19.2531 14.9008 19.8717 16.5007 19.8717C17.546 19.8717 18.5913 19.6157 19.5086 19.1038C19.7219 18.9971 19.8286 18.7838 19.8286 18.5278C19.8286 18.3358 19.7646 18.1438 19.6153 17.9945V17.9731L17.418 15.7546Z" fill="#666666"/>
</svg>
