<svg width="32" height="32" viewBox="0 0 32 32" fill="none" xmlns="http://www.w3.org/2000/svg">
<path d="M24.4402 29.8661C23.2806 29.8661 22.3398 28.9255 22.3398 27.7658V24.4038C22.3398 23.2442 23.2806 22.3033 24.4402 22.3033H27.8021C28.9618 22.3033 29.9027 23.245 29.9027 24.4038V27.7658C29.9027 28.9255 28.9618 29.8661 27.8021 29.8661H24.4402ZM24.8607 27.3452H27.3817V24.8244H24.8607V27.3452ZM14.3555 29.8661C13.1958 29.8661 12.254 28.9255 12.254 27.7658V24.4038C12.254 23.2442 13.1958 22.3033 14.3555 22.3033H17.7164C18.8771 22.3033 19.8178 23.245 19.8178 24.4038V27.7658C19.8178 28.9255 18.8761 29.8661 17.7164 29.8661H14.3555ZM14.7759 27.3452H17.2969V24.8244H14.7759V27.3452ZM4.27062 29.8661C3.11099 29.8661 2.16919 28.9255 2.16919 27.7658V24.4038C2.16919 23.2442 3.11099 22.3033 4.27062 22.3033H7.63162C8.79224 22.3033 9.73306 23.2442 9.73306 24.4038V27.7658C9.73306 28.9255 8.79126 29.8661 7.63162 29.8661H4.27062ZM4.69113 27.3452H7.21209V24.8244H4.69113V27.3452ZM24.4402 19.7825C23.2806 19.7825 22.3398 18.8406 22.3398 17.6809V14.3189C22.3398 13.1593 23.2806 12.2184 24.4402 12.2184H27.8021C28.9618 12.2184 29.9027 13.1593 29.9027 14.3189V17.6809C29.9027 18.8406 28.9618 19.7825 27.8021 19.7825H24.4402ZM24.8607 17.2604H27.3817V14.7395H24.8607V17.2604ZM14.3555 19.7814C13.1958 19.7825 12.254 18.8406 12.254 17.6809V14.3189C12.254 13.1593 13.1958 12.2184 14.3555 12.2184H17.7164C18.8771 12.2184 19.8178 13.1593 19.8178 14.3189V17.6809C19.8178 18.8406 18.8761 19.7814 17.7164 19.7814H14.3555ZM14.7759 17.2604H17.2969V14.7395H14.7759V17.2604ZM4.27062 19.7814C3.11099 19.7825 2.16919 18.8406 2.16919 17.6809V14.3189C2.16919 13.1593 3.11099 12.2184 4.27062 12.2184H7.63162C8.79224 12.2184 9.73306 13.1593 9.73306 14.3189V17.6809C9.73306 18.8406 8.79126 19.7814 7.63162 19.7814H4.27062ZM4.69113 17.2604H7.21209V14.7395H4.69113V17.2604ZM24.4402 9.69655C23.2806 9.69655 22.3398 8.75592 22.3398 7.59603V4.23431C22.3398 3.07441 23.2806 2.13379 24.4402 2.13379H27.8021C28.9618 2.13379 29.9027 3.07441 29.9027 4.23431V7.59603C29.9027 8.75592 28.9618 9.69655 27.8021 9.69655H24.4402ZM24.8607 7.17572H27.3817V4.65462H24.8607V7.17572ZM14.3555 9.69655C13.1958 9.69655 12.254 8.75592 12.254 7.59603V4.23431C12.254 3.07441 13.1958 2.13379 14.3555 2.13379H17.7164C18.8771 2.13379 19.8178 3.07441 19.8178 4.23431V7.59603C19.8178 8.75592 18.8761 9.69655 17.7164 9.69655H14.3555ZM14.7759 7.17572H17.2969V4.65462H14.7759V7.17572ZM4.27062 9.69655C3.11099 9.69655 2.16919 8.75592 2.16919 7.59603V4.23431C2.16919 3.07441 3.11099 2.13379 4.27062 2.13379H7.63162C8.79224 2.13379 9.73306 3.07441 9.73306 4.23431V7.59603C9.73306 8.75592 8.79126 9.69655 7.63162 9.69655H4.27062ZM4.69113 7.17572H7.21209V4.65462H4.69113V7.17572Z" fill="#EA0558"/>
</svg>
