<svg width="32" height="32" viewBox="0 0 32 32" fill="none" xmlns="http://www.w3.org/2000/svg">
<path d="M17.7737 26.6669C17.2352 26.6669 16.7974 26.2397 16.7897 25.7089C16.7878 25.6935 16.7696 24.2084 16.7696 22.4074C16.7686 21.1287 15.7193 20.0928 14.4243 20.091H7.51806C6.89595 20.0881 6.29787 20.3309 5.85627 20.7648C5.41467 21.1988 5.16604 21.7872 5.16509 22.4026C5.16509 24.1997 5.16509 25.6753 5.16509 25.6896C5.16412 25.9469 5.06044 26.1917 4.87515 26.3722C4.69084 26.5527 4.44123 26.6535 4.18108 26.6516C3.92092 26.6535 3.67131 26.5518 3.487 26.3703C3.30269 26.1889 3.19901 25.9421 3.19996 25.6848C3.19996 25.6695 3.19996 24.2017 3.19996 22.4074C3.20285 20.0545 5.13531 18.1479 7.51806 18.1469H14.4243C16.806 18.1498 18.7356 20.0545 18.7395 22.4064C18.7395 24.1949 18.7597 25.6666 18.7597 25.682C18.7635 25.9393 18.6627 26.1889 18.4803 26.3732C18.2979 26.5585 18.0483 26.6641 17.7872 26.6669H17.7737ZM19.8204 25.6512V7.37188C19.8204 6.83529 20.2611 6.40039 20.8045 6.40039C21.3478 6.40039 21.7884 6.83529 21.7884 7.37188V7.66855L28.8003 10.6042L21.7884 13.5313V25.6512C21.7884 26.1879 21.3478 26.6238 20.8045 26.6238C20.2611 26.6238 19.8204 26.1879 19.8204 25.6512ZM5.68827 11.9674C5.68827 9.08262 8.0566 6.7431 10.9779 6.7431C13.9001 6.7431 16.2684 9.08262 16.2684 11.9674C16.2684 14.8532 13.9001 17.1917 10.9779 17.1917C8.05758 17.1898 5.69117 14.8522 5.68827 11.9674ZM7.65819 11.9674C7.65725 13.779 9.14524 15.2487 10.9808 15.2487C12.8153 15.2477 14.3024 13.779 14.3024 11.9665C14.3014 10.1549 12.8134 8.68613 10.9779 8.68711C9.14524 8.68997 7.66011 10.1568 7.65819 11.9674Z" fill="#666666"/>
</svg>
