<svg width="26" height="36" viewBox="0 0 26 36" fill="none" xmlns="http://www.w3.org/2000/svg">
<path d="M25.44 12.72C25.44 19.7451 14.88 36 12.72 36C10.56 36 0 19.7451 0 12.72C0 5.69494 5.69494 0 12.72 0C19.7451 0 25.44 5.69494 25.44 12.72Z" fill="#EA0558"/>
<path d="M12.8052 8.72C14.4212 8.72 16.1172 9.44 17.2212 10.576L15.7492 12.368C14.9812 11.488 13.8772 10.912 12.8372 10.912C10.9172 10.912 9.42922 12.4 9.42922 14.352C9.42922 16.304 10.9172 17.808 12.8372 17.808C13.8452 17.808 14.9492 17.296 15.7492 16.496L17.2372 18.112C16.0532 19.328 14.3412 20.112 12.7092 20.112C9.36522 20.112 6.83722 17.632 6.83722 14.384C6.83722 11.152 9.41322 8.72 12.8052 8.72Z" fill="white"/>
</svg>
