<?xml version="1.0" encoding="UTF-8"?>
<svg id="Capa_1" xmlns="http://www.w3.org/2000/svg" version="1.1" viewBox="0 0 100 100">
  <!-- Generator: Adobe Illustrator 29.0.0, SVG Export Plug-In . SVG Version: 2.1.0 Build 186)  -->
  <defs>
    <style>
      .st0 {
        fill: #ff621d;
      }

      .st1 {
        fill: #fff;
      }
    </style>
  </defs>
  <circle class="st0" cx="50" cy="50" r="49.2"/>
  <path class="st1" d="M75,43.9c3-.8,5-3.2,5-5.9v-.9c0-3.6-3.4-6.5-7.5-6.5H27.5c-4.1,0-7.5,2.9-7.5,6.5v.9c0,2.7,2.1,5.1,5,5.9,3.9,1.2,5.9,5,4.5,8.3-.8,1.8-2.4,3.3-4.5,3.9-3,.8-5,3.2-5,5.9v.9c0,3.6,3.4,6.5,7.5,6.5h45c4.1,0,7.5-2.9,7.5-6.5v-.9c0-2.7-2.1-5.1-5-5.9-3.9-1.2-5.9-5-4.5-8.3.8-1.8,2.4-3.3,4.5-3.9ZM40,37h5c1.4,0,2.5,1,2.5,2.2s-1.1,2.2-2.5,2.2h-5c-1.4,0-2.5-1-2.5-2.2s1.1-2.2,2.5-2.2ZM50,47.8h-10c-1.4,0-2.5-1-2.5-2.2s1.1-2.2,2.5-2.2h10c1.4,0,2.5,1,2.5,2.2s-1.1,2.2-2.5,2.2ZM62.5,60.9c0,1.2-1.1,2.2-2.5,2.2s-2.5-1-2.5-2.2v-2.2c0-1.2,1.1-2.2,2.5-2.2s2.5,1,2.5,2.2v2.2ZM62.5,52.2c0,1.2-1.1,2.2-2.5,2.2s-2.5-1-2.5-2.2v-4.3c0-1.2,1.1-2.2,2.5-2.2s2.5,1,2.5,2.2v4.3ZM62.5,41.3c0,1.2-1.1,2.2-2.5,2.2s-2.5-1-2.5-2.2v-2.2c0-1.2,1.1-2.2,2.5-2.2s2.5,1,2.5,2.2v2.2Z"/>
</svg>