<svg width="32" height="32" viewBox="0 0 32 32" fill="none" xmlns="http://www.w3.org/2000/svg">
<path d="M27.1865 28.707C27.0473 28.6448 26.9072 28.5669 26.815 28.4586C26.5817 28.2417 26.4733 27.9469 26.4733 27.6367C26.4733 27.6203 26.4733 27.1557 26.4579 22.3146C26.4262 21.6013 25.8367 21.0425 25.1235 21.0425H22.951C20.8726 21.0425 19.2742 19.3672 19.2742 17.381C19.2742 17.1326 19.2895 16.9 19.352 16.6362V16.6208L21.5081 6.13178C21.8499 4.42501 23.3552 3.20001 25.0928 3.20001C27.1251 3.20001 28.7695 4.84454 28.7695 6.86147L28.8003 27.6367C28.8003 27.7914 28.7695 27.9469 28.7072 28.0859C28.5833 28.3664 28.3664 28.5823 28.087 28.707C27.9468 28.7695 27.7923 28.8003 27.6367 28.8003C27.4822 28.8003 27.3267 28.7695 27.1865 28.707ZM23.7891 6.59845L21.6329 17.1018V17.1172L21.6013 17.381C21.6013 17.7383 21.7414 18.0636 21.9891 18.3123C22.2377 18.5599 22.5632 18.7154 22.951 18.7154H25.1235C25.5891 18.7154 26.0384 18.8086 26.4579 18.9641L26.4425 6.87683C26.4425 6.13282 25.8367 5.5271 25.0928 5.5271C24.4563 5.5271 23.9139 5.97736 23.7891 6.59845ZM8.24285 27.6367V15.6117H7.46714C5.10841 15.6117 3.19995 13.7034 3.19995 11.3456V4.36355C3.19995 3.72788 3.71258 3.20001 4.36447 3.20001C4.99995 3.20001 5.52795 3.72788 5.52795 4.36355V11.3456C5.52795 12.4159 6.39676 13.2846 7.46714 13.2846H8.24285V4.36355C8.24285 3.72788 8.75451 3.20001 9.40633 3.20001C10.0429 3.20001 10.5699 3.72788 10.5699 4.36355V13.2846H11.3456C12.416 13.2846 13.2694 12.4159 13.2848 11.3456V4.36355C13.2848 3.72788 13.7974 3.20001 14.4492 3.20001C15.0848 3.20001 15.6128 3.72788 15.6128 4.36355V11.3456C15.6128 13.7034 13.7042 15.6117 11.3456 15.6117H10.5699V27.6367C10.5699 28.2724 10.0429 28.8003 9.40633 28.8003C8.75451 28.8003 8.24285 28.2724 8.24285 27.6367Z" fill="#666666"/>
</svg>
