<svg width="32" height="32" viewBox="0 0 32 32" fill="none" xmlns="http://www.w3.org/2000/svg">
<path d="M26.2203 3.28893C24.821 3.57384 16.7523 2.48255 16.0149 4.16519C15.3153 2.49061 7.15204 3.58191 5.80952 3.28893C4.36753 3.29189 3.20015 4.45594 3.20015 5.89084V26.9185C3.19292 27.4122 3.38387 27.8884 3.73068 28.2416C4.07749 28.5948 4.55158 28.7958 5.04781 28.8V28.8C9.36981 28.7516 12.3223 24.9858 10.5908 21.4485C10.4584 21.0884 9.22124 19.2982 9.51024 18.9246C13.6891 17.086 15.3396 12.3338 15.9933 9.03571C16.647 12.323 18.2974 17.0753 22.4763 18.9246C22.7761 19.2713 21.5281 21.1045 21.3958 21.4485C19.6697 24.9858 22.633 28.7516 26.9442 28.7893C27.9736 28.7848 28.8044 27.9508 28.8 26.9265V5.8989C28.806 4.47171 27.6544 3.30662 26.2203 3.28893ZM5.5286 26.4535V19.4649H7.17098C7.21148 20.8384 8.97541 22.3786 8.79169 23.7844C7.09807 21.5695 5.2801 24.4644 7.48433 25.7116C6.91616 26.1382 6.23797 26.3955 5.5286 26.4535ZM8.96193 16.613C10.0829 15.4518 11.7685 9.70231 11.6848 9.08678C11.9252 7.60573 9.57782 7.25899 9.38329 8.75079C9.11317 10.5383 7.91922 15.3819 5.5286 16.8549V5.89621C5.11799 5.26455 14.0321 5.75106 14.0997 5.61129C14.0727 6.2779 13.6297 14.1401 8.96193 16.613ZM17.9139 5.64892V5.62204C18.0246 5.76182 26.855 5.28337 26.485 5.91503V16.8603C24.1052 15.39 22.9004 10.5463 22.6357 8.75616C22.4358 7.26705 20.0884 7.60841 20.3315 9.09215C20.2559 9.72919 21.9252 15.4464 23.0571 16.6183C18.4136 14.1616 17.9462 6.26983 17.9139 5.64892ZM24.5482 25.717C26.7632 24.4671 24.9317 21.5776 23.2408 23.7897C23.0436 22.3866 24.8021 20.8491 24.8615 19.4702H26.5039V26.4588C25.7934 26.3977 25.1151 26.1367 24.5482 25.7062V25.717Z" fill="#666666"/>
</svg>
