<svg width="20" height="20" viewBox="0 0 20 20" fill="none" xmlns="http://www.w3.org/2000/svg">
<path d="M6.24418 15.416C5.89001 15.416 5.56084 15.2193 5.43168 14.8893C5.14563 14.1612 4.99919 13.3858 5.00001 12.6035C5.00001 11.1452 5.49918 9.80518 6.33501 8.74185C6.46084 8.58185 6.64584 8.48435 6.83501 8.41102C7.22918 8.25852 7.57668 7.98268 7.84501 7.64102C8.49191 6.81571 9.30394 6.13452 10.2292 5.64102C10.8317 5.32102 11.3542 4.84435 11.6067 4.21185C11.784 3.76872 11.8751 3.29581 11.875 2.81852V2.29102C11.875 2.12526 11.9409 1.96628 12.0581 1.84907C12.1753 1.73186 12.3342 1.66602 12.5 1.66602C12.9973 1.66602 13.4742 1.86356 13.8258 2.21519C14.1775 2.56682 14.375 3.04373 14.375 3.54102C14.375 4.50102 14.1583 5.41018 13.7725 6.22268C13.5508 6.68768 13.8617 7.29102 14.3767 7.29102H16.9817C17.8367 7.29102 18.6025 7.86935 18.6933 8.72018C18.7308 9.07185 18.75 9.42852 18.75 9.79102C18.7535 12.0713 17.9742 14.2837 16.5425 16.0585C16.2192 16.4602 15.72 16.666 15.205 16.666H11.8583C11.4558 16.666 11.055 16.601 10.6725 16.4743L8.07751 15.6077C7.69509 15.4805 7.29468 15.4158 6.89168 15.416H6.24418ZM1.94251 8.93852C1.48328 10.1058 1.24833 11.3492 1.25001 12.6035C1.24896 13.5938 1.39499 14.5787 1.68334 15.526C1.90001 16.2343 2.58751 16.666 3.32834 16.666H4.08334C4.45418 16.666 4.68334 16.251 4.51918 15.9177C4.01096 14.8869 3.74746 13.7528 3.74918 12.6035C3.74918 11.1802 4.14584 9.84935 4.83418 8.71518C5.03834 8.37935 4.81084 7.91602 4.41751 7.91602H3.54168C2.84834 7.91602 2.19751 8.29352 1.94251 8.93852Z" fill="#242323"/>
</svg>
