<svg width="16" height="16" viewBox="0 0 16 16" fill="none" xmlns="http://www.w3.org/2000/svg">
<path d="M12.0397 14.4004H3.81201C3.13183 14.4008 2.51888 13.9904 2.2597 13.3616C2.00097 12.7328 2.14687 12.0099 2.62975 11.5309L6.16015 8.00055L2.62975 4.47008C2.14257 3.99247 1.99856 3.26526 2.2664 2.63792C2.52031 2.00823 3.13281 1.59677 3.81201 1.60068H12.0397C12.7218 1.59352 13.3381 2.00537 13.593 2.63792C13.8599 3.26526 13.7149 3.99208 13.2282 4.46865L9.69775 8.00055L13.2282 11.5309C13.712 12.011 13.8574 12.7352 13.5968 13.3645C13.3371 13.9916 12.7251 14.4003 12.0468 14.4004C12.0444 14.4004 12.0421 14.4004 12.0397 14.4004ZM3.26722 3.0555C3.176 3.27594 3.22591 3.52932 3.39391 3.69833L7.3208 7.61461C7.53391 7.82776 7.53391 8.17333 7.3208 8.38649L3.40159 12.3013C3.23313 12.4693 3.18225 12.7218 3.27151 12.9421C3.36129 13.162 3.57441 13.3074 3.81201 13.3098H12.0397C12.2783 13.3098 12.4933 13.1663 12.5845 12.946C12.6762 12.7257 12.6258 12.4718 12.4578 12.3028L8.54143 8.38649C8.43873 8.28414 8.38111 8.14547 8.38111 8.00055C8.38111 7.8555 8.43873 7.71682 8.54143 7.61461L12.4563 3.69833C12.6243 3.52932 12.6742 3.27594 12.583 3.0555C12.4914 2.83518 12.2768 2.69169 12.0382 2.69169H3.81201C3.57343 2.69169 3.35888 2.83518 3.26722 3.0555ZM6.16783 12.0267C5.98496 12.0244 5.82128 11.9134 5.7512 11.7446C5.68112 11.5755 5.71855 11.3817 5.84576 11.2502L7.60927 9.48662C7.78785 9.31044 8.0749 9.31044 8.25296 9.48662L10.0213 11.2502C10.1485 11.3811 10.1859 11.575 10.1163 11.7435C10.0467 11.9125 9.88352 12.0239 9.70113 12.0267H6.16783ZM7.80322 7.00745L7.07552 6.2831C7.02272 6.2288 7.00735 6.14912 7.03616 6.07958C7.06497 6.00992 7.13264 5.96487 7.208 5.96383H8.65904C8.7344 5.96487 8.80208 6.00992 8.83089 6.07958C8.8597 6.14912 8.84433 6.2288 8.79153 6.2831L8.06722 7.00745C8.0305 7.04365 7.98271 7.06175 7.93502 7.06175C7.88733 7.06175 7.83968 7.04365 7.80322 7.00745Z" fill="#666666"/>
</svg>
