<svg width="24" height="24" viewBox="0 0 24 24" fill="none" xmlns="http://www.w3.org/2000/svg">
<path fill-rule="evenodd" clip-rule="evenodd" d="M17.1688 1.59961C17.4003 1.59965 17.6224 1.69147 17.786 1.85508C17.9497 2.01873 18.0415 2.24083 18.0415 2.47227V3.92773H19.2001C19.6204 3.92747 20.0367 4.01003 20.4251 4.1707C20.8135 4.33137 21.1662 4.56735 21.4634 4.86445C21.7606 5.16155 21.9964 5.51451 22.1571 5.90273C22.3178 6.29089 22.4004 6.70688 22.4001 7.12695V16.7949C22.4011 17.2154 22.319 17.6319 22.1587 18.0207C21.9983 18.4096 21.763 18.7636 21.4657 19.0613C21.1685 19.359 20.8153 19.5948 20.4267 19.7559C20.0379 19.9169 19.6209 19.9999 19.2001 19.9996H13.6759C13.1922 19.9996 12.8001 19.6075 12.8001 19.1238C12.8001 18.6401 13.1922 18.248 13.6759 18.248H19.2001C19.3914 18.2486 19.5809 18.2114 19.7579 18.1387C19.9349 18.0659 20.0957 17.9588 20.2313 17.8238C20.367 17.6888 20.475 17.5286 20.5485 17.352C20.622 17.1754 20.6599 16.9861 20.6603 16.7949V9.74492H5.74619V10.3266C5.74619 10.8087 5.35532 11.1996 4.87315 11.1996C4.39097 11.1996 4.0001 10.8087 4.0001 10.3266V7.12695C3.99983 6.70688 4.08242 6.29089 4.24307 5.90273C4.40378 5.51451 4.63963 5.16155 4.93682 4.86445C5.23402 4.56735 5.58674 4.33137 5.9751 4.1707C6.36346 4.01003 6.7798 3.92747 7.2001 3.92773H8.36494V2.47227C8.36494 2.24083 8.45671 2.01873 8.62041 1.85508C8.7841 1.69149 9.00614 1.59961 9.2376 1.59961C9.46906 1.59962 9.6911 1.69148 9.85479 1.85508C10.0185 2.01873 10.1103 2.24083 10.1103 2.47227V3.92773H16.2954V2.47227C16.2954 2.24083 16.388 2.01873 16.5517 1.85508C16.7153 1.69153 16.9374 1.59961 17.1688 1.59961ZM7.2001 5.67305C6.81467 5.67358 6.44533 5.82721 6.17275 6.09961C5.90016 6.37211 5.74673 6.74158 5.74619 7.12695V7.99961H20.6603V7.12695C20.66 6.93573 20.622 6.74648 20.5485 6.56992C20.475 6.39327 20.367 6.23228 20.2313 6.09727C20.0958 5.96238 19.9348 5.85516 19.7579 5.78242C19.581 5.70971 19.3914 5.67252 19.2001 5.67305H18.0415V5.96445C18.0415 6.19582 17.9496 6.418 17.786 6.58164C17.6224 6.74526 17.4003 6.83707 17.1688 6.83711C16.9373 6.83711 16.7154 6.74529 16.5517 6.58164C16.388 6.41799 16.2954 6.19589 16.2954 5.96445V5.67305H10.1103V5.96445C10.1103 6.19585 10.0184 6.418 9.85479 6.58164C9.69109 6.74528 9.4691 6.8371 9.2376 6.83711C9.00609 6.83711 8.78411 6.74529 8.62041 6.58164C8.45675 6.418 8.36494 6.19586 8.36494 5.96445V5.67305H7.2001Z" fill="#666666"/>
<path d="M10.2798 17.1996C10.2798 15.2777 8.72205 13.7199 6.8001 13.7199C4.87815 13.7199 3.32041 15.2777 3.32041 17.1996C3.32041 19.1216 4.87815 20.6793 6.8001 20.6793C6.8001 21.3511 6.8001 21.7278 6.8001 22.3996C3.92822 22.3996 1.6001 20.0715 1.6001 17.1996C1.6001 14.3277 3.92822 11.9996 6.8001 11.9996C9.67198 11.9996 12.0001 14.3277 12.0001 17.1996C12.0001 20.0715 9.67198 22.3996 6.8001 22.3996C6.8001 21.7278 6.8001 21.3511 6.8001 20.6793C8.72205 20.6793 10.2798 19.1216 10.2798 17.1996Z" fill="#666666"/>
<path d="M5.69995 15.3596C5.69995 14.8846 6.08514 14.4995 6.56011 14.4995C7.03507 14.4995 7.42026 14.8846 7.42026 15.3596V16.8995H7.76011C8.23507 16.8995 8.62026 17.2846 8.62026 17.7596C8.62026 18.2346 8.23507 18.6198 7.76011 18.6198H6.96011C6.26423 18.6198 5.69995 18.0555 5.69995 17.3596V15.3596Z" fill="#666666"/>
</svg>
