<svg width="16" height="16" viewBox="0 0 16 16" fill="none" xmlns="http://www.w3.org/2000/svg">
<path d="M10.327 13.8181V13.0424H2.18185C1.86362 13.0424 1.6001 12.7866 1.6001 12.4607C1.6001 12.1424 1.86362 11.8789 2.18185 11.8789H10.3275V11.1027C10.3275 10.7849 10.591 10.521 10.9092 10.521C11.227 10.521 11.491 10.7849 11.491 11.1027V11.8789H13.818C14.1363 11.8789 14.3998 12.1424 14.3998 12.4607C14.3998 12.7866 14.1363 13.0424 13.818 13.0424H11.491V13.8181C11.491 14.144 11.227 14.3999 10.9092 14.3999C10.591 14.3999 10.327 14.144 10.327 13.8181ZM4.5089 9.35742V8.58177H2.18185C1.86362 8.58177 1.6001 8.32539 1.6001 8C1.6001 7.68177 1.86362 7.41823 2.18185 7.41823H4.50938V6.64206C4.50938 6.32435 4.7729 6.06029 5.09115 6.06029C5.4089 6.06029 5.6729 6.32435 5.6729 6.64258V7.41823H13.818C14.1363 7.41823 14.3998 7.68177 14.3998 8C14.3998 8.32539 14.1363 8.58177 13.818 8.58177H5.6729V9.35742C5.6729 9.68333 5.4089 9.93919 5.09066 9.93919C4.7729 9.93919 4.5089 9.68333 4.5089 9.35742ZM7.41818 4.89674V4.12109H2.18185C1.86362 4.12109 1.6001 3.86523 1.6001 3.53932C1.6001 3.22161 1.86362 2.95755 2.18185 2.95755H7.41818V2.18138C7.41818 1.86367 7.68218 1.59961 7.99994 1.59961C8.31818 1.59961 8.58171 1.86367 8.58171 2.18138V2.95755H13.818C14.1363 2.95755 14.3998 3.22161 14.3998 3.53932C14.3998 3.86523 14.1363 4.12109 13.818 4.12109H8.58171V4.89674C8.58171 5.22266 8.31818 5.47852 7.99994 5.47852C7.68218 5.47852 7.41818 5.22266 7.41818 4.89674Z" fill="#666666"/>
</svg>
