<svg width="24" height="24" viewBox="0 0 24 24" fill="none" xmlns="http://www.w3.org/2000/svg">
<path d="M14.0362 18.0045V4.26213C13.7569 4.33189 13.4892 4.42511 13.2332 4.56463C12.7329 4.83236 12.1742 5.13487 11.5809 5.44889C11.0689 5.72814 10.522 5.91438 9.96346 5.99587V19.7382C10.2312 19.6685 10.4987 19.5752 10.7547 19.4357C11.3365 19.1215 11.9067 18.819 12.4187 18.5515C12.9309 18.2722 13.4777 18.086 14.0362 18.0045ZM19.8543 17.2947V7.32258C19.8543 6.69432 19.5168 6.1356 19.0281 5.87961C18.3066 5.49561 17.3991 5.00687 16.5729 4.56463C16.3169 4.4249 16.0492 4.33189 15.7816 4.26213V18.0045C16.3401 18.086 16.8871 18.2722 17.3991 18.5515L17.7714 18.7492C17.9809 18.8657 18.1904 18.9122 18.3998 18.9122C19.1096 18.9122 19.8543 18.2722 19.8543 17.2947ZM8.2182 19.7384V5.99608C7.6597 5.91459 7.11272 5.72835 6.60072 5.4491L6.22846 5.25135C6.00724 5.13487 5.79775 5.08836 5.59999 5.08836C4.8785 5.08836 4.1455 5.72835 4.1455 6.70584C4.1455 9.54506 4.1455 13.42 4.1455 16.678C4.1455 17.3063 4.48299 17.865 4.97173 18.121L7.41544 19.4359C7.67122 19.5755 7.93895 19.6685 8.2182 19.7384ZM11.5809 20.9719C10.8595 21.3676 10.0567 21.5654 9.26523 21.5887C9.20699 21.5887 9.14896 21.6004 9.09072 21.6004C9.03248 21.6004 8.97446 21.5887 8.91622 21.5887C8.11324 21.5654 7.322 21.3676 6.58899 20.9719L4.14528 19.6687C3.05175 19.0752 2.40002 17.9232 2.40002 16.678C2.40002 13.4198 2.40002 9.54506 2.40002 6.70584C2.40002 4.80911 3.86625 3.35462 5.59999 3.34289C6.08873 3.34289 6.58899 3.47089 7.04296 3.71515L7.41522 3.91291C7.95047 4.19216 8.5207 4.33189 9.09094 4.33189C9.66117 4.33189 10.2312 4.19216 10.7549 3.91291C11.3484 3.59867 11.9186 3.29617 12.4189 3.02865C13.1984 2.60988 14.0479 2.40039 14.9089 2.40039C15.7584 2.40039 16.6194 2.60988 17.3991 3.02865C18.2136 3.45915 19.1329 3.94789 19.8543 4.33189C20.9366 4.92538 21.5998 6.07736 21.5998 7.32258V17.2947C21.5881 19.1915 20.1221 20.6577 18.3998 20.6577C17.9111 20.6577 17.4108 20.5414 16.9454 20.2854L16.5731 20.0877C16.0494 19.8084 15.4793 19.6687 14.9091 19.6687C14.3389 19.6687 13.7689 19.8084 13.2334 20.0877C12.7329 20.3552 12.1629 20.6577 11.5809 20.9719Z" fill="white"/>
</svg>
