<svg width="24" height="24" viewBox="0 0 24 24" fill="none" xmlns="http://www.w3.org/2000/svg">
<path d="M11.9939 21.5988C10.8787 21.5922 9.9755 20.6903 9.9662 19.5737V14.0329H4.44596C3.89899 14.0501 3.36928 13.8415 2.98183 13.4554C2.59433 13.0686 2.38432 12.5396 2.40094 11.9933C2.40758 10.8773 3.31012 9.97412 4.42667 9.96543H9.97018V4.42598C9.95822 3.88496 10.1676 3.36328 10.5497 2.98047C10.9319 2.59834 11.4536 2.38887 11.9939 2.40088C13.1091 2.40684 14.011 3.31006 14.0177 4.42598C14.0177 4.42598 14.0137 7.5749 14.0177 9.96944H14.0256H19.5745C20.1148 9.95752 20.6372 10.1669 21.0193 10.5489C21.4021 10.9312 21.6115 11.4528 21.5995 11.9933C21.5929 13.1084 20.6897 14.0103 19.5745 14.017C19.5745 14.017 16.4272 14.013 14.0336 14.017V19.5538C14.0516 20.1008 13.8422 20.6305 13.4561 21.018C13.0841 21.3911 12.5797 21.5997 12.0542 21.5997C12.0342 21.5997 12.0141 21.5994 11.9939 21.5988Z" fill="white"/>
</svg>
