<svg width="30" height="30" viewBox="0 0 30 30" fill="none" xmlns="http://www.w3.org/2000/svg">
<path d="M1.11242 16.6375C1.94959 23.0865 7.66888 28.2886 14.5997 28.2886C21.53 28.2886 27.2487 23.0865 28.0858 16.6375C28.2063 15.7108 27.4927 14.9403 26.5598 14.894C24.7637 14.8056 21.2093 14.6963 14.5991 14.6963C7.98892 14.6963 4.43452 14.8056 2.63909 14.894C1.70493 14.9403 0.991946 15.7108 1.11242 16.6375Z" stroke="#666666" stroke-width="2.19674" stroke-linecap="round" stroke-linejoin="round"/>
<path d="M26.5062 14.891C26.8312 14.1328 26.9835 13.3118 26.9519 12.4875C26.9204 11.6631 26.7058 10.8562 26.3238 10.125C25.9417 9.39391 25.4018 8.75694 24.7432 8.2603C24.0845 7.76366 23.3236 7.4198 22.5156 7.25363C21.7075 7.08746 20.8727 7.10315 20.0715 7.29957C19.2703 7.49599 18.5228 7.86821 17.8833 8.38926C17.2438 8.9103 16.7282 9.56711 16.3739 10.3121C16.0196 11.0571 15.8355 11.8715 15.835 12.6964C15.834 13.3809 15.9597 14.0595 16.2057 14.6982" stroke="#666666" stroke-width="2.19674" stroke-linecap="round" stroke-linejoin="round"/>
<path d="M19.4834 7.42255C19.7874 5.78406 19.1924 4.1641 17.8523 3.39057C16.4758 2.59541 14.718 2.92843 13.4422 4.08501C13.3844 3.96719 13.3226 3.85138 13.2569 3.73779C11.8927 1.37334 9.10934 0.425581 7.04083 1.61985C5.10454 2.73752 4.48053 5.33551 5.52776 7.60296C4.33225 7.69687 3.26216 8.28443 2.67707 9.2983C1.65332 11.0715 2.50037 13.4767 4.56888 14.671C4.65167 14.7186 4.73446 14.7637 4.81848 14.8057" stroke="#666666" stroke-width="2.19674" stroke-linecap="round" stroke-linejoin="round"/>
<path d="M10.4653 7.75781C11.3169 8.67275 11.9157 9.7936 12.2028 11.0101C12.4899 12.2267 12.4553 13.497 12.1026 14.6961" stroke="#666666" stroke-width="2.19674" stroke-linecap="round" stroke-linejoin="round"/>
<path d="M23.0736 18.4023C22.263 20.2164 20.9021 21.7295 19.1837 22.7272" stroke="#666666" stroke-width="2.19674" stroke-linecap="round" stroke-linejoin="round"/>
</svg>
