<svg width="24" height="24" viewBox="0 0 24 24" fill="none" xmlns="http://www.w3.org/2000/svg">
<path d="M21.4954 10.8952H4.66994L10.7759 4.78916C11.1604 4.47256 11.2056 3.90719 10.889 3.52273C10.5724 3.13828 10.007 3.09305 9.62259 3.40966C9.57736 3.45489 9.55474 3.4775 9.50951 3.52273L1.84309 11.1892V11.1892C1.79786 11.2344 1.77524 11.2796 1.75263 11.3249C1.73001 11.3475 1.73001 11.3701 1.7074 11.3927C1.68478 11.4153 1.68478 11.4379 1.66217 11.4832C1.63955 11.5058 1.63955 11.551 1.63955 11.5736C1.63955 11.5962 1.61694 11.6188 1.61694 11.6415C1.59432 11.7545 1.59432 11.8902 1.61694 12.0033C1.61694 12.0259 1.63955 12.0485 1.63955 12.0711C1.63955 12.0938 1.66217 12.139 1.66217 12.1616C1.68478 12.1842 1.68478 12.2294 1.7074 12.2521C1.73001 12.2747 1.73001 12.2973 1.75263 12.3199C1.77524 12.3651 1.82047 12.4104 1.8657 12.4556V12.4556L9.4869 20.0994C9.84874 20.4612 10.4141 20.4612 10.7759 20.0994C11.1378 19.7376 11.1378 19.1722 10.7759 18.8104V18.8104L4.66994 12.7044L21.4954 12.7044C21.9929 12.7044 22.4 12.2973 22.4 11.7998C22.4 11.3022 21.9929 10.8952 21.4954 10.8952V10.8952Z" fill="#333333"/>
</svg>
