<svg width="24" height="24" viewBox="0 0 24 24" fill="none" xmlns="http://www.w3.org/2000/svg">
<path d="M4.14586 7.92776V8.80039H19.8603V7.92776C19.86 7.73641 19.822 7.547 19.7485 7.37035C19.6749 7.1937 19.5672 7.03328 19.4316 6.89827C19.296 6.76325 19.1351 6.65629 18.9581 6.58349C18.781 6.5107 18.5914 6.47351 18.4 6.47404H17.2415V6.76559C17.2415 6.99703 17.1496 7.21899 16.9859 7.38264C16.8222 7.54629 16.6001 7.63823 16.3686 7.63823C16.1371 7.63823 15.9151 7.54629 15.7514 7.38264C15.5877 7.21899 15.4957 6.99703 15.4957 6.76559V6.47404H8.51041V6.76559C8.51041 6.99703 8.41844 7.21899 8.25474 7.38264C8.09104 7.54629 7.86901 7.63823 7.6375 7.63823C7.40599 7.63823 7.18396 7.54629 7.02026 7.38264C6.85655 7.21899 6.76459 6.99703 6.76459 6.76559V6.47404H5.60003C5.21452 6.47457 4.84496 6.6279 4.57237 6.90041C4.29977 7.17292 4.14639 7.54237 4.14586 7.92776ZM4.14586 10.5457V18.3953C4.14639 18.7807 4.29977 19.1502 4.57237 19.4227C4.84496 19.6952 5.21452 19.8485 5.60003 19.849H18.4C18.5914 19.8496 18.781 19.8124 18.9581 19.7396C19.1351 19.6668 19.296 19.5598 19.4316 19.4248C19.5672 19.2898 19.6749 19.1294 19.7485 18.9527C19.822 18.7761 19.86 18.5867 19.8603 18.3953V10.5457H4.14586ZM2.40003 7.92776C2.39977 7.50758 2.48236 7.09148 2.64308 6.70324C2.8038 6.315 3.0395 5.96224 3.3367 5.66514C3.6339 5.36803 3.98677 5.1324 4.37513 4.97173C4.76349 4.81106 5.17973 4.7285 5.60003 4.72877H6.76459V3.27303C6.76459 3.04159 6.85655 2.81963 7.02026 2.65598C7.18396 2.49233 7.40599 2.40039 7.6375 2.40039C7.86901 2.40039 8.09104 2.49233 8.25474 2.65598C8.41844 2.81963 8.51041 3.04159 8.51041 3.27303V4.72877H15.4957V3.27303C15.4957 3.04159 15.5877 2.81963 15.7514 2.65598C15.9151 2.49233 16.1371 2.40039 16.3686 2.40039C16.6001 2.40039 16.8222 2.49233 16.9859 2.65598C17.1496 2.81963 17.2415 3.04159 17.2415 3.27303V4.72877H18.4C18.8203 4.7285 19.2366 4.81106 19.6249 4.97173C20.0133 5.1324 20.3662 5.36803 20.6634 5.66514C20.9606 5.96224 21.1963 6.315 21.357 6.70324C21.5177 7.09148 21.6003 7.50758 21.6 7.92776V18.3953C21.6011 18.816 21.5191 19.2328 21.3587 19.6217C21.1984 20.0106 20.9628 20.3641 20.6655 20.6619C20.3682 20.9596 20.0151 21.1958 19.6263 21.3568C19.2376 21.5179 18.8208 21.6007 18.4 21.6004H5.60003C5.17921 21.6007 4.76248 21.5179 4.37372 21.3568C3.98497 21.1958 3.63182 20.9596 3.33454 20.6619C3.03726 20.3641 2.80169 20.0106 2.64133 19.6217C2.48097 19.2328 2.39897 18.816 2.40003 18.3953V7.92776Z" fill="#00825B"/>
<path d="M10.3231 18.1115L8.23188 15.8057C7.91014 15.4495 7.92506 14.8923 8.26536 14.555C8.6117 14.2228 9.1523 14.2406 9.47754 14.5948L10.9509 16.2122L14.5138 12.2803C14.8374 11.9261 15.3761 11.9053 15.7243 12.2336C15.8919 12.3926 15.9909 12.6142 15.9994 12.8492C16.0079 13.0841 15.9251 13.3127 15.7695 13.4842L11.5838 18.1098C11.4213 18.2936 11.1919 18.3989 10.9509 18.4004C10.7132 18.3969 10.4869 18.2946 10.3231 18.1167" fill="#00825B"/>
</svg>
