<svg width="32" height="32" viewBox="0 0 32 32" fill="none" xmlns="http://www.w3.org/2000/svg">
<path fill-rule="evenodd" clip-rule="evenodd" d="M17.0366 4.41661L17.0502 4.40238C18.3947 3.0103 20.2474 2.15519 22.3912 2.13294C22.4075 2.13277 22.4238 2.13277 22.4401 2.13294C24.5718 2.1553 26.4235 3.01303 27.7653 4.40244L27.7788 4.41655C29.0745 5.7807 29.8666 7.64145 29.8666 9.60604C29.8666 10.7129 29.6126 11.842 29.0847 12.9203C28.5567 13.9986 24.6687 19.5584 24.6687 19.5584C24.47 19.9557 24.1625 20.2884 23.7822 20.5178L23.6276 20.6111C22.9137 21.0417 22.0248 21.0612 21.2927 20.6623L21.1216 20.569C20.7007 20.3397 20.3601 19.9869 20.1457 19.5582C20.1457 19.5582 16.2507 13.9706 15.7397 12.9381C15.2287 11.9057 14.9489 10.759 14.9489 9.60604C14.9489 7.64145 15.7411 5.78074 17.0366 4.41661ZM17.8384 11.8883C17.4658 11.1274 17.2956 10.3508 17.2956 9.60604C17.2956 8.26906 17.8384 6.98 18.7382 6.0326C19.6537 5.08469 20.9103 4.4951 22.4155 4.47948C23.9051 4.4951 25.1619 5.08469 26.0773 6.0326C26.9771 6.98 27.5199 8.26906 27.5199 9.60604C27.5199 10.3508 27.3497 11.1274 26.9771 11.8883L22.5972 18.4543C22.5795 18.4897 22.5521 18.5193 22.5182 18.5397C22.4546 18.5781 22.3754 18.5798 22.3102 18.5443L22.3049 18.5414C22.2655 18.5199 22.2337 18.4869 22.2136 18.4468L17.8384 11.8883Z" fill="#666666"/>
<path d="M21.9992 7.11748C22.127 6.72438 22.6831 6.72438 22.8108 7.11748L23.1731 8.23254C23.2302 8.40833 23.3941 8.52736 23.5789 8.52736H24.7513C25.1647 8.52736 25.3365 9.05626 25.0021 9.2992L24.0536 9.98835C23.9041 10.097 23.8415 10.2896 23.8986 10.4654L24.2609 11.5804C24.3886 11.9735 23.9387 12.3004 23.6043 12.0575L22.6558 11.3683C22.5063 11.2597 22.3038 11.2597 22.1542 11.3683L21.2057 12.0575C20.8713 12.3004 20.4214 11.9735 20.5491 11.5804L20.9114 10.4654C20.9686 10.2896 20.906 10.097 20.7564 9.98835L19.8079 9.2992C19.4735 9.05626 19.6454 8.52736 20.0587 8.52736H21.2311C21.416 8.52736 21.5798 8.40833 21.6369 8.23254L21.9992 7.11748Z" fill="#666666"/>
<path d="M6.78187 9.03245C6.78187 8.38443 7.30719 7.85911 7.9552 7.85911H11.1462C11.7942 7.85911 12.3195 8.38443 12.3195 9.03245C12.3195 9.68046 11.7942 10.2058 11.1462 10.2058H7.9552C7.30719 10.2058 6.78187 9.68046 6.78187 9.03245Z" fill="#666666"/>
<path fill-rule="evenodd" clip-rule="evenodd" d="M14.3686 18.0491C12.9909 18.342 12.1115 19.6962 12.4044 21.0738C12.6972 22.4515 14.0514 23.3309 15.429 23.0381C16.1253 22.8901 16.6928 22.4729 17.0486 21.9154C17.3972 21.3692 18.1227 21.209 18.6689 21.5576C19.2152 21.9062 19.3754 22.6316 19.0268 23.1779C18.3466 24.2436 17.2531 25.0495 15.9169 25.3335C13.2716 25.8958 10.6713 24.2071 10.109 21.5617C9.54668 18.9164 11.2353 16.3161 13.8807 15.7538C14.5146 15.619 15.1376 16.0237 15.2723 16.6575C15.4071 17.2914 15.0025 17.9144 14.3686 18.0491Z" fill="#666666"/>
<path d="M12.2903 12.0346H6.39997C4.04355 12.0346 2.1333 13.9449 2.1333 16.3013V25.5995C2.1333 27.956 4.04355 29.8662 6.39997 29.8662H23.4536C25.81 29.8662 27.7203 27.956 27.7203 25.5995V23.155C27.7203 23.1512 27.7203 23.1475 27.7203 23.1437C27.7203 22.4957 27.195 21.9704 26.547 21.9704C25.899 21.9704 25.3737 22.4957 25.3737 23.1437L25.3736 25.5995C25.3736 26.6599 24.514 27.5195 23.4536 27.5195H6.39997C5.33958 27.5195 4.47997 26.6599 4.47997 25.5995V16.3013C4.47997 15.2409 5.33958 14.3813 6.39997 14.3813H12.2903C12.9383 14.3813 13.4636 13.856 13.4636 13.208C13.4636 12.56 12.9383 12.0346 12.2903 12.0346Z" fill="#666666"/>
</svg>
