<svg width="32" height="32" viewBox="0 0 32 32" fill="none" xmlns="http://www.w3.org/2000/svg">
<path d="M7.37152 24.6409L6.82809 23.6951C6.51839 23.1367 6.70485 22.4237 7.26201 22.113C7.71175 21.8497 7.9445 21.3854 7.96032 20.9198C7.96032 20.687 7.89814 20.4396 7.77386 20.2227C7.51058 19.7875 7.06084 19.5401 6.58057 19.5401C6.34782 19.5401 6.11501 19.601 5.88226 19.7255C5.61898 19.8802 5.30934 19.9276 5.01442 19.8497C4.70368 19.7719 4.45622 19.5706 4.30029 19.3073L3.7432 18.3456C3.3861 17.7096 3.19971 17.0122 3.19971 16.3297C3.19971 14.9185 3.92855 13.5547 5.23135 12.794L16.5504 6.26614L19.0623 4.80859C19.7132 4.4526 20.4116 4.26614 21.094 4.26614C22.5043 4.26614 23.8693 5.01068 24.6129 6.29791L25.1711 7.25937C25.3259 7.53854 25.3575 7.84818 25.2795 8.12734C25.249 8.20521 25.2332 8.26745 25.2027 8.32943C25.1711 8.40651 25.1247 8.46849 25.0784 8.53073C25.0321 8.59271 24.9857 8.65495 24.9235 8.7013C24.8761 8.7487 24.7993 8.79505 24.7371 8.8414C24.2874 9.10469 24.0547 9.55443 24.0399 10.0346C24.0399 10.2674 24.102 10.5003 24.2253 10.7172C24.4896 11.1669 24.9541 11.4154 25.4196 11.4154C25.6524 11.4154 25.8841 11.3534 26.1169 11.2289C26.6751 10.9036 27.3881 11.0891 27.6988 11.6471L28.2412 12.594C28.6141 13.2292 28.8005 13.9263 28.8005 14.6247C28.8005 16.019 28.0716 17.4 26.7688 18.1445L24.2569 19.601L12.9379 26.1292C12.3017 26.5018 11.6045 26.6724 10.922 26.6724C9.51064 26.6724 8.13089 25.9437 7.37152 24.6409ZM9.77497 19.0586C10.1152 19.6328 10.2869 20.2836 10.2869 20.9198C10.2869 21.8193 9.94561 22.687 9.32529 23.3685L9.3874 23.4781C9.71286 24.0362 10.3174 24.3458 10.922 24.3458C11.2169 24.3458 11.496 24.268 11.7751 24.1133L20.9234 18.8417L20.5664 18.2372C20.2409 17.6789 20.4263 16.9648 20.9856 16.6396C21.5427 16.3297 22.2568 16.5161 22.5823 17.0745L22.9393 17.6789L23.0941 17.5862L25.6061 16.1286C26.1643 15.818 26.4591 15.2292 26.4739 14.6247C26.4739 14.3297 26.397 14.0349 26.2264 13.7557L26.1643 13.663C25.9168 13.7094 25.6682 13.7398 25.4196 13.7398C24.1484 13.7398 22.9077 13.0732 22.2252 11.8799C21.885 11.306 21.7144 10.6549 21.7144 10.0346C21.7144 9.13515 22.0546 8.25156 22.6602 7.56901L22.598 7.46068C22.2873 6.90234 21.6986 6.59271 21.094 6.59271C20.7991 6.59271 20.5042 6.66953 20.2251 6.82552L17.7132 8.28203L17.5584 8.37578L17.8996 8.98047C18.225 9.53854 18.0386 10.2516 17.4804 10.5771C16.9222 10.8878 16.2091 10.7013 15.8995 10.1432L15.5425 9.53854L6.39411 14.8099C5.85173 15.1354 5.54105 15.7253 5.52627 16.3297C5.52627 16.6247 5.60316 16.9185 5.75902 17.1828L5.82015 17.3062C6.06872 17.244 6.332 17.2135 6.58057 17.2135C7.85179 17.2135 9.1083 17.8802 9.77497 19.0586ZM18.6126 14.8562L17.6826 13.2437C17.3572 12.6857 17.5425 11.9727 18.1007 11.6471C18.659 11.3216 19.3731 11.5229 19.6985 12.081L20.6285 13.6935C20.9382 14.2359 20.7528 14.95 20.1946 15.2755C20.0118 15.382 19.8124 15.432 19.616 15.432C19.2125 15.432 18.8216 15.2211 18.6126 14.8562Z" fill="#666666"/>
</svg>
