<svg width="32" height="32" viewBox="0 0 32 32" fill="none" xmlns="http://www.w3.org/2000/svg">
<path d="M19.9934 23.0594C18.7916 23.0563 17.7204 22.299 17.3141 21.1667H14.2952C13.9486 21.1813 13.6232 21.0052 13.4457 20.7083C13.2681 20.411 13.2681 20.0406 13.4457 19.7422C13.6232 19.4453 13.9486 19.2693 14.2952 19.2833H17.2956C17.6863 18.1224 18.7745 17.3401 20.0005 17.3401C21.2251 17.3401 22.3147 18.1224 22.7054 19.2833L26.061 19.2932C26.3053 19.3047 26.5412 19.1979 26.6917 19.0047C26.8807 18.7521 26.9475 18.4292 26.8764 18.1224C26.642 17.1016 26.4559 16.4735 26.2201 15.6766L26.2073 15.6333C26.0823 15.2156 25.6419 14.6276 25.0467 14.6276H23.1231C22.569 14.6276 22.0434 14.3776 21.6925 13.949L19.1027 11.1073L19.0899 11.0735C18.9791 10.9271 18.8072 10.8401 18.6239 10.8365H14.3122C13.7894 10.8365 13.3647 10.4125 13.3647 9.88856C13.3647 9.36564 13.7894 8.94116 14.3122 8.94116H18.6239C19.3768 8.94377 20.0872 9.28647 20.556 9.8745L23.1416 12.713L23.16 12.7323H25.0608C25.7925 12.7386 26.4943 13.0182 27.0284 13.5156C27.5001 13.9417 27.8467 14.4891 28.03 15.0964L28.0428 15.1391C28.2843 15.9307 28.4803 16.6141 28.7346 17.6865L28.7204 17.6906C28.9264 18.5615 28.7276 19.4792 28.1778 20.1854C27.6663 20.8333 26.8835 21.2052 26.0582 21.1912L22.6841 21.1813C22.2729 22.3099 21.2008 23.0599 20.0002 23.0594C19.998 23.0594 19.9956 23.0594 19.9934 23.0594ZM19.0572 20.1995C19.0572 20.7292 19.4862 21.1589 20.0161 21.1589C20.546 21.1589 20.9751 20.7292 20.9751 20.1995C20.9751 19.6698 20.546 19.2406 20.0161 19.2406C19.4862 19.2406 19.0572 19.6698 19.0572 20.1995ZM8.23615 21.761C7.85682 21.3818 7.85682 20.7662 8.23615 20.387L12.0989 16.5229H4.17026C3.63468 16.5229 3.19995 16.0886 3.19995 15.5516C3.19995 15.0141 3.63468 14.5797 4.17026 14.5797H12.0989L8.23615 10.7193C7.85828 10.3401 7.85828 9.72502 8.23758 9.34585C8.61688 8.96668 9.23202 8.96668 9.61134 9.34585L15.068 14.8042C15.2655 15.0016 15.3692 15.2745 15.3507 15.5542V15.5557C15.3692 15.8339 15.2669 16.1068 15.068 16.3042L9.61134 21.7625C9.42114 21.9521 9.17248 22.0469 8.92388 22.0469C8.67492 22.0469 8.42596 21.9516 8.23615 21.761Z" fill="#666666"/>
</svg>
