<svg width="24" height="24" viewBox="0 0 24 24" fill="none" xmlns="http://www.w3.org/2000/svg">
<path d="M18.75 6.75H5.25C5.05109 6.75 4.86032 6.82902 4.71967 6.96967C4.57902 7.11032 4.5 7.30109 4.5 7.5C4.5 7.69891 4.57902 7.88968 4.71967 8.03033C4.86032 8.17098 5.05109 8.25 5.25 8.25H6V18C6 18.5967 6.23705 19.169 6.65901 19.591C7.08097 20.0129 7.65326 20.25 8.25 20.25H15.75C16.3467 20.25 16.919 20.0129 17.341 19.591C17.7629 19.169 18 18.5967 18 18V8.25H18.75C18.9489 8.25 19.1397 8.17098 19.2803 8.03033C19.421 7.88968 19.5 7.69891 19.5 7.5C19.5 7.30109 19.421 7.11032 19.2803 6.96967C19.1397 6.82902 18.9489 6.75 18.75 6.75ZM16.5 18C16.5 18.1989 16.421 18.3897 16.2803 18.5303C16.1397 18.671 15.9489 18.75 15.75 18.75H8.25C8.05109 18.75 7.86032 18.671 7.71967 18.5303C7.57902 18.3897 7.5 18.1989 7.5 18V8.25H16.5V18Z" fill="#7B7D8D"/>
<path d="M9 5.25H15C15.1989 5.25 15.3897 5.17098 15.5303 5.03033C15.671 4.88968 15.75 4.69891 15.75 4.5C15.75 4.30109 15.671 4.11032 15.5303 3.96967C15.3897 3.82902 15.1989 3.75 15 3.75H9C8.80109 3.75 8.61032 3.82902 8.46967 3.96967C8.32902 4.11032 8.25 4.30109 8.25 4.5C8.25 4.69891 8.32902 4.88968 8.46967 5.03033C8.61032 5.17098 8.80109 5.25 9 5.25Z" fill="#7B7D8D"/>
<path d="M9.75 17.25C9.94891 17.25 10.1397 17.171 10.2803 17.0303C10.421 16.8897 10.5 16.6989 10.5 16.5V10.5C10.5 10.3011 10.421 10.1103 10.2803 9.96967C10.1397 9.82902 9.94891 9.75 9.75 9.75C9.55109 9.75 9.36032 9.82902 9.21967 9.96967C9.07902 10.1103 9 10.3011 9 10.5V16.5C9 16.6989 9.07902 16.8897 9.21967 17.0303C9.36032 17.171 9.55109 17.25 9.75 17.25Z" fill="#7B7D8D"/>
<path d="M12 17.25C12.1989 17.25 12.3897 17.171 12.5303 17.0303C12.671 16.8897 12.75 16.6989 12.75 16.5V10.5C12.75 10.3011 12.671 10.1103 12.5303 9.96967C12.3897 9.82902 12.1989 9.75 12 9.75C11.8011 9.75 11.6103 9.82902 11.4697 9.96967C11.329 10.1103 11.25 10.3011 11.25 10.5V16.5C11.25 16.6989 11.329 16.8897 11.4697 17.0303C11.6103 17.171 11.8011 17.25 12 17.25Z" fill="#7B7D8D"/>
<path d="M14.25 17.25C14.4489 17.25 14.6397 17.171 14.7803 17.0303C14.921 16.8897 15 16.6989 15 16.5V10.5C15 10.3011 14.921 10.1103 14.7803 9.96967C14.6397 9.82902 14.4489 9.75 14.25 9.75C14.0511 9.75 13.8603 9.82902 13.7197 9.96967C13.579 10.1103 13.5 10.3011 13.5 10.5V16.5C13.5 16.6989 13.579 16.8897 13.7197 17.0303C13.8603 17.171 14.0511 17.25 14.25 17.25Z" fill="#7B7D8D"/>
</svg>
