<svg xmlns="http://www.w3.org/2000/svg" 
     width="50" height="50" 
     viewBox="0 0 50 50">

  <!-- Outer circle -->
  <path d="M25,0.25 L25,0.25 A24.75,24.75 0,0 1,49.75 25 L49.75,25 
           A24.75,24.75 0,0 1,25 49.75 L25,49.75 
           A24.75,24.75 0,0 1,0.25 25 L0.25,25 
           A24.75,24.75 0,0 1,25 0.25 Z" 
        fill="none" stroke="#C2C4D1" stroke-width="0.5"/>

  <!-- Plus sign -->
  <path d="M18,25 C18,24.3979 18.4881,23.9099 19.0901,23.9099 
           H23.9094 V19.0901 
           C23.9094,18.4881 24.3974,18 24.9995,18 
           C25.6015,18 26.0896,18.4881 26.0896,19.0901 
           V23.9099 H30.9099 
           C31.5119,23.9099 32,24.3979 32,25 
           C32,25.602 31.5119,26.0901 30.9099,26.0901 
           H26.0896 V30.9099 
           C26.0896,31.5119 25.6015,32 24.9995,32 
           C24.3974,32 23.9094,31.5119 23.9094,30.9099 
           V26.0901 H19.0901 
           C18.4881,26.0901 18,25.602 18,25 Z" 
        fill="#ff621d"/>
</svg>