<svg width="20" height="20" viewBox="0 0 20 20" fill="none" xmlns="http://www.w3.org/2000/svg">
<path d="M1.33301 9.99917C1.33301 5.21238 5.21322 1.33331 10 1.33331C14.7868 1.33331 18.667 5.21238 18.667 9.99917C18.667 14.7858 14.7868 18.6671 10 18.6671C5.21322 18.6671 1.33301 14.7858 1.33301 9.99917ZM3.33333 9.99917C3.33333 13.6751 6.32389 16.6668 10 16.6668C13.6761 16.6668 16.6667 13.6751 16.6667 9.99917C16.6667 6.32322 13.6761 3.3325 10 3.3325C6.32389 3.3325 3.33333 6.32322 3.33333 9.99917ZM5.30273 10.7627C5.10156 10.5607 4.99219 10.2827 5 9.99689C5.00358 9.41193 5.47331 8.93748 6.05501 8.93309H8.94499L11.055 8.93536H13.945C14.2262 8.92853 14.4987 9.03904 14.6973 9.23891C14.8971 9.43992 15.0065 9.71336 15 9.99689C14.9967 10.5807 14.5254 11.054 13.945 11.0574C13.945 11.0574 12.3031 11.0552 11.055 11.0574C9.80794 11.0596 8.95638 11.0662 8.95638 11.0662H6.06608C6.05534 11.0667 6.0446 11.0669 6.03385 11.0669C5.75977 11.0669 5.49707 10.9582 5.30273 10.7627Z" fill="#EA0558"/>
</svg>
