<?xml version="1.0" encoding="UTF-8"?><svg id="Header" xmlns="http://www.w3.org/2000/svg" xmlns:xlink="http://www.w3.org/1999/xlink" viewBox="0 0 204 32"><defs><style>.cls-1{fill:#fd921e;}.cls-2{fill:url(#Degradado_sin_nombre_5-3);}.cls-3{fill:url(#Degradado_sin_nombre_5-2);}.cls-4{fill:url(#Degradado_sin_nombre_5-5);}.cls-5{fill:url(#Degradado_sin_nombre_5-4);}.cls-6{fill:url(#Degradado_sin_nombre_5);}</style><linearGradient id="Degradado_sin_nombre_5" x1="165.96" y1="-609.01" x2="48.19" y2="-629.72" gradientTransform="translate(-47.5 -605) scale(1 -1)" gradientUnits="userSpaceOnUse"><stop offset=".1" stop-color="#fd921e"/><stop offset=".12" stop-color="#fd871d"/><stop offset=".17" stop-color="#fe761d"/><stop offset=".23" stop-color="#fe6a1d"/><stop offset=".31" stop-color="#fe631d"/><stop offset=".53" stop-color="#ff621d"/><stop offset=".65" stop-color="#ff5921"/><stop offset=".84" stop-color="#ff432e"/><stop offset="1" stop-color="#ff2c3d"/></linearGradient><linearGradient id="Degradado_sin_nombre_5-2" x1="164.37" y1="-613.2" x2="52.9" y2="-632.8" xlink:href="#Degradado_sin_nombre_5"/><linearGradient id="Degradado_sin_nombre_5-3" x1="170.91" y1="-619.86" x2="53.65" y2="-640.48" xlink:href="#Degradado_sin_nombre_5"/><linearGradient id="Degradado_sin_nombre_5-4" x1="169.81" y1="-615.73" x2="55.65" y2="-635.8" xlink:href="#Degradado_sin_nombre_5"/><linearGradient id="Degradado_sin_nombre_5-5" x1="159.66" y1="-606.31" x2="45.5" y2="-626.38" xlink:href="#Degradado_sin_nombre_5"/></defs><path class="cls-1" d="m120.09,1.88v6.01c0,.21.17.38.38.38h3.86c.21,0,.38.17.38.38v3.03c0,.21-.17.38-.38.38h-3.86c-.21,0-.38.17-.38.38v10.75c0,1.01.23,1.75.69,2.22.46.48,1.22.71,2.28.71.44,0,.85-.03,1.21-.09.22-.04.43.14.43.37v2.83c0,.16-.11.31-.26.36-.68.21-1.53.31-2.58.31-1.83,0-3.28-.53-4.35-1.6-1.06-1.07-1.6-2.57-1.6-4.49v-11.37c0-.21-.17-.38-.38-.38h-3.33c-.21,0-.38-.17-.38-.38v-3.03c0-.21.17-.38.38-.38h.78c1.09,0,1.91-.3,2.46-.91.55-.61.82-1.4.82-2.38V1.88c0-.21.17-.38.37-.38h3.07c.21,0,.38.17.38.38Z"/><path class="cls-1" d="m129.61,10.82c2.06-2.15,4.67-3.23,7.83-3.23s5.78,1.07,7.83,3.23c2.06,2.15,3.08,4.86,3.08,8.12s-1.02,6.01-3.06,8.16c-2.04,2.15-4.66,3.23-7.85,3.23s-5.81-1.07-7.85-3.23c-2.04-2.15-3.06-4.87-3.06-8.16s1.03-5.97,3.08-8.12Zm3.11,13.75c1.29,1.35,2.86,2.03,4.73,2.03s3.44-.67,4.73-2.03c1.29-1.35,1.93-3.23,1.93-5.63s-.64-4.23-1.93-5.58c-1.29-1.35-2.86-2.03-4.73-2.03s-3.44.67-4.73,2.03c-1.29,1.35-1.93,3.21-1.93,5.58s.64,4.28,1.93,5.63Z"/><path class="cls-1" d="m185.59,8.36v3.71c0,.22-.19.4-.41.37-.48-.05-.95-.08-1.41-.08-3.9,0-5.86,2.2-5.86,6.59v10.35c0,.21-.17.38-.37.38h-3.42c-.21,0-.37-.17-.37-.38V8.64c0-.21.17-.38.37-.38h3.33c.21,0,.38.17.38.38v1.95c0,.37.47.52.68.21,1.32-1.93,3.22-2.9,5.71-2.9.36,0,.71.03,1.05.08.18.03.32.18.32.37h0Z"/><path class="cls-1" d="m186.79,23.99l3.05-1.08c.21-.08.44.06.49.28.21.97.68,1.78,1.44,2.44.86.76,2.01,1.13,3.46,1.13,1.12,0,2.01-.27,2.66-.82.65-.55.98-1.22.98-2.03,0-1.42-.92-2.34-2.75-2.76l-3.64-.8c-1.66-.36-2.96-1.07-3.9-2.13-.95-1.07-1.42-2.36-1.42-3.87,0-1.84.75-3.42,2.24-4.76,1.49-1.33,3.28-2,5.35-2,1.36,0,2.57.2,3.64.6,1.07.4,1.89.93,2.49,1.58.59.65,1.04,1.26,1.33,1.82.24.45.43.92.57,1.39.06.19-.04.4-.23.47l-2.96,1.11c-.21.08-.44-.04-.5-.26-.06-.22-.13-.42-.22-.63-.15-.34-.38-.72-.69-1.14-.31-.41-.76-.75-1.35-1-.59-.25-1.29-.38-2.09-.38-1.03,0-1.89.28-2.55.84-.67.56-1,1.23-1,2,0,1.36.81,2.22,2.44,2.58l3.46.76c1.89.42,3.35,1.18,4.37,2.29,1.02,1.11,1.53,2.47,1.53,4.07,0,1.69-.69,3.22-2.06,4.58-1.38,1.36-3.29,2.05-5.74,2.05-2.63,0-4.69-.66-6.17-1.98-1.37-1.22-2.2-2.53-2.47-3.92-.04-.18.07-.37.24-.43h0Z"/><path class="cls-1" d="m169.45,8.23h-3.42c-.21,0-.38.17-.38.38v12.48c0,.76-.09,1.46-.27,2.1-.01.04-.02.08-.03.12-.02.07-.05.14-.07.21-.21.6-.51,1.14-.91,1.6-.84.97-2.06,1.47-3.66,1.49-1.6-.02-2.82-.52-3.66-1.49-.4-.46-.7-1-.91-1.6-.02-.07-.05-.14-.07-.21-.01-.04-.02-.08-.03-.12-.18-.64-.27-1.33-.27-2.1v-12.48c0-.21-.17-.38-.38-.38h-3.42c-.21,0-.38.17-.38.38v13.11c0,2.49.72,4.55,2.17,6.16.66.74,1.42,1.3,2.29,1.7h0s.02.01.07.03c.51.23,1.06.41,1.64.52,1.52.37,3.87.66,6.34-.1.83-.21,1.59-.55,2.27-1.02,0,0,0,0,.01,0,.46-.32.89-.69,1.27-1.13,1.45-1.62,2.17-3.67,2.17-6.16v-13.11c0-.21-.17-.38-.38-.38Z"/><path class="cls-6" d="m44.54,23.28c.2.06.32.28.25.49-1.22,3.61-4.63,6.56-9.82,6.56-5.99,0-11.27-4.31-11.27-11.7,0-6.99,5.15-11.52,10.74-11.52,6.74,0,10.78,4.32,10.78,11.34,0,.55-.04,1.12-.06,1.48-.01.2-.18.35-.37.35h-14.86c-.22,0-.4.19-.37.42.34,2.67,2.68,4.56,5.47,4.56,2.6,0,4.09-1.24,4.85-3.03.07-.17.27-.27.45-.21l4.23,1.26h0Zm-5.54-7.05c.22,0,.4-.19.37-.42-.25-2.03-1.69-3.9-4.85-3.9-2.84,0-4.5,2-4.83,3.89-.04.23.14.43.37.43h8.93Z"/><path class="cls-3" d="m53.36,18.45l-7.19-10.09c-.18-.25,0-.59.3-.59h6.08c.13,0,.25.06.31.17.79,1.22,2.95,4.36,3.93,5.85.15.23.48.22.62,0l3.88-5.85c.07-.11.19-.17.31-.17h5.77c.3,0,.48.35.3.59l-7.05,9.91c-.09.13-.09.3,0,.43l7.32,10.36c.18.25,0,.59-.31.59h-6c-.12,0-.24-.06-.31-.16l-4.15-6.1c-.15-.22-.47-.22-.62,0-1.02,1.52-3.27,4.84-4.06,6.09-.07.11-.19.17-.31.17h-5.72c-.3,0-.48-.34-.31-.59l7.19-10.18c.09-.13.09-.3,0-.43h0Z"/><path class="cls-2" d="m97.09,22.54c.21-.05.41.1.45.31.29,1.58,1.57,2.94,3.94,2.94,1.95,0,2.88-1.02,2.88-2.18,0-.98-.67-1.78-2.35-2.13l-2.88-.67c-4.22-.93-6.12-3.47-6.12-6.54,0-3.91,3.46-7.16,8.16-7.16,5.91,0,8.09,3.59,8.51,5.97.03.2-.09.38-.29.43l-4.21.95c-.2.04-.4-.08-.44-.27-.29-1.22-1.27-2.58-3.53-2.58-1.55,0-2.8.93-2.8,2.18,0,1.07.8,1.73,2,1.96l3.1.67c4.3.89,6.48,3.51,6.48,6.72,0,3.56-2.75,7.21-8.47,7.21-6.27,0-8.61-3.89-9.05-6.41-.03-.2.1-.38.29-.43l4.32-.95h0Z"/><path class="cls-5" d="m89.63,7.53h-5.15c-.21,0-.37.17-.37.38v12.26c0,.05,0,.11,0,.16,0,.06,0,.13,0,.19-.02.31-.05.62-.11.91,0,.02,0,.04-.01.07-.01.05-.02.1-.04.15-.46,1.75-1.82,2.89-3.89,2.92-2.07-.02-3.43-1.17-3.89-2.92-.01-.05-.02-.1-.04-.15,0-.02,0-.04-.01-.07-.06-.29-.1-.6-.11-.91,0-.06,0-.13,0-.19,0-.05,0-.11,0-.16V7.9c0-.21-.17-.38-.37-.38h-5.15c-.21,0-.37.17-.37.38v13.46c0,3.31,1.46,6.19,4.13,7.64h0s.03.01.07.04c.65.35,1.38.61,2.18.77,1.74.45,4.36.76,7.37-.04.49-.11.95-.26,1.39-.44,0,0,0,0,0,0,3.09-1.31,4.79-4.38,4.79-7.96V7.9c0-.21-.17-.38-.37-.38h0Z"/><path class="cls-4" d="m20.54,29.74h-5.15c-.21,0-.37-.17-.37-.38v-12.26c0-.05,0-.11,0-.16,0-.06,0-.13,0-.19-.02-.31-.05-.62-.11-.91,0-.02,0-.04-.01-.06-.01-.05-.02-.1-.04-.15-.46-1.75-1.82-2.89-3.89-2.92-2.07.02-3.43,1.17-3.89,2.92-.01.05-.02.1-.04.15,0,.02,0,.04-.01.06-.06.29-.1.6-.11.91,0,.06,0,.13,0,.19,0,.05,0,.11,0,.16v12.26c0,.21-.17.38-.37.38H1.37c-.21,0-.37-.17-.37-.38v-13.46c0-3.31,1.46-6.19,4.13-7.64h0s.03-.01.07-.04c.65-.35,1.38-.61,2.18-.77,1.74-.45,4.36-.76,7.37.04.49.11.95.26,1.39.44,0,0,0,0,0,0,3.09,1.31,4.79,4.38,4.79,7.96v13.46c0,.21-.17.38-.37.38h0Z"/></svg>