<svg width="32" height="32" viewBox="0 0 32 32" fill="none" xmlns="http://www.w3.org/2000/svg">
<path d="M2.13281 15.9987C2.13281 8.33987 8.34115 2.13336 16 2.13336C23.6589 2.13336 29.8672 8.33987 29.8672 15.9987C29.8672 23.6573 23.6589 29.8675 16 29.8675C8.34115 29.8675 2.13281 23.6573 2.13281 15.9987ZM5.33333 15.9987C5.33333 21.8802 10.1182 26.667 16 26.667C21.8818 26.667 26.6667 21.8802 26.6667 15.9987C26.6667 10.1172 21.8818 5.33206 16 5.33206C10.1182 5.33206 5.33333 10.1172 5.33333 15.9987ZM8.48438 17.2203C8.1625 16.8972 7.9875 16.4524 8 15.9951C8.00573 15.0591 8.75729 14.3 9.68802 14.293H14.312L17.688 14.2966H22.312C22.762 14.2857 23.1979 14.4625 23.5156 14.7823C23.8354 15.1039 24.0104 15.5414 24 15.9951C23.9948 16.9292 23.2406 17.6865 22.312 17.692C22.312 17.692 19.6849 17.6883 17.688 17.692C15.6927 17.6953 14.3302 17.706 14.3302 17.706H9.70573C9.68854 17.7068 9.67135 17.7071 9.65417 17.7071C9.21563 17.7071 8.79531 17.5331 8.48438 17.2203Z" fill="#CFCFCF"/>
</svg>
