<svg width="12" height="12" viewBox="0 0 12 12" fill="none" xmlns="http://www.w3.org/2000/svg">
<path d="M4.74187 0.816125C4.9964 0.279569 5.51267 0 6 0C6.49453 0 7.01093 0.279569 7.25813 0.816125L8.35627 3.11336L10.8 3.48353C11.1636 3.53645 11.4764 3.7329 11.68 4.00499C11.8909 4.26945 12 4.59446 12 4.93444C12 5.29713 11.8619 5.68254 11.5781 5.97721L9.81093 7.76822L10.2255 10.2921V10.2997C10.24 10.3828 10.2473 10.466 10.2473 10.5491C10.2473 10.9571 10.0728 11.3274 9.81827 11.5844C9.56373 11.8414 9.21467 12 8.84373 12C8.6256 12 8.3928 11.9471 8.1892 11.8338L6 10.6397L3.81813 11.8336C3.6072 11.9469 3.38173 11.9999 3.1636 11.9999C2.78547 11.9999 2.43627 11.8412 2.18173 11.5842C1.9272 11.3273 1.75267 10.9571 1.75267 10.549C1.75267 10.4582 1.76 10.3827 1.78173 10.292H1.7744L2.19627 7.76809L0.429067 5.97721C0.138133 5.69016 0 5.29713 0 4.93444C0 4.59433 0.1164 4.26945 0.32 3.99737C0.5236 3.7329 0.8436 3.53645 1.20733 3.48353L3.65093 3.11322L4.74187 0.816125Z" fill="#EA0558"/>
</svg>
