<svg width="50" height="50" viewBox="0 0 50 50" fill="none" xmlns="http://www.w3.org/2000/svg">
<circle cx="25" cy="25" r="25" fill="#F5F5F5"/>
<path d="M30.156 20.9898L20.9898 30.156C20.6766 30.4692 20.1572 30.4692 19.844 30.156C19.5308 29.8428 19.5308 29.3234 19.844 29.0102L29.0102 19.844C29.3234 19.5309 29.8428 19.5309 30.156 19.844C30.4692 20.1572 30.4692 20.6766 30.156 20.9898Z" fill="black"/>
<path d="M30.156 30.156C29.8428 30.4691 29.3234 30.4691 29.0102 30.156L19.844 20.9898C19.5308 20.6766 19.5308 20.1572 19.844 19.844C20.1572 19.5308 20.6766 19.5308 20.9898 19.844L30.156 29.0102C30.4692 29.3234 30.4692 29.8428 30.156 30.156Z" fill="black"/>
</svg>
