<svg width="32" height="32" viewBox="0 0 32 32" fill="none" xmlns="http://www.w3.org/2000/svg">
<path d="M2.1333 15.9997C2.1333 8.34088 8.34216 2.13385 15.9994 2.13385C23.6583 2.13385 29.8672 8.34088 29.8672 15.9997C29.8672 23.6586 23.6583 29.8674 15.9994 29.8674C8.34216 29.8674 2.1333 23.6586 2.1333 15.9997ZM5.33382 15.9997C5.33382 21.881 10.1182 26.6672 15.9994 26.6672C21.8823 26.6672 26.6666 21.881 26.6666 15.9997C26.6666 10.1185 21.8823 5.33255 15.9994 5.33255C10.1182 5.33255 5.33382 10.1185 5.33382 15.9997ZM15.9937 23.999C15.0635 23.9935 14.3125 23.2424 14.3052 22.312V17.694H9.70518C9.25101 17.7086 8.80778 17.5349 8.4833 17.2109C8.16299 16.8904 7.98747 16.4487 8.00205 15.9943C8.00726 15.0641 8.75882 14.3109 9.68747 14.3036H14.3088V9.68776C14.2979 9.2388 14.4734 8.8026 14.7922 8.48385C15.1088 8.16536 15.5448 7.99166 15.9937 8.00052C16.9244 8.00599 17.6755 8.75911 17.6812 9.68776C17.6812 9.68776 17.6776 12.3107 17.6812 14.3073H17.688H22.3114C22.7619 14.2982 23.1984 14.4721 23.5172 14.7906C23.8354 15.1091 24.0093 15.5437 23.9984 15.9943C23.9932 16.9247 23.2416 17.676 22.3114 17.6815C22.3114 17.6815 19.6885 17.6779 17.6937 17.6815V22.2956C17.7099 22.75 17.5343 23.1917 17.2119 23.5156C16.9047 23.8271 16.4843 24.0008 16.0484 24.0008C16.0302 24.0008 16.0119 24.0008 15.9937 23.999Z" fill="#666666"/>
</svg>
