<svg width="52" height="52" viewBox="0 0 52 52" fill="none" xmlns="http://www.w3.org/2000/svg">
<rect width="52" height="52" rx="26" fill="#FFEAF1"/>
<path d="M18.5 20C18.5 19.8011 18.579 19.6103 18.7196 19.4697C18.8603 19.329 19.0511 19.25 19.25 19.25H20.75V17.75C20.75 17.5511 20.829 17.3603 20.9696 17.2197C21.1103 17.079 21.3011 17 21.5 17C21.6989 17 21.8897 17.079 22.0303 17.2197C22.171 17.3603 22.25 17.5511 22.25 17.75V19.25H23.75C23.9489 19.25 24.1397 19.329 24.2803 19.4697C24.421 19.6103 24.5 19.8011 24.5 20C24.5 20.1989 24.421 20.3897 24.2803 20.5303C24.1397 20.671 23.9489 20.75 23.75 20.75H22.25V22.25C22.25 22.4489 22.171 22.6397 22.0303 22.7803C21.8897 22.921 21.6989 23 21.5 23C21.3011 23 21.1103 22.921 20.9696 22.7803C20.829 22.6397 20.75 22.4489 20.75 22.25V20.75H19.25C19.0511 20.75 18.8603 20.671 18.7196 20.5303C18.579 20.3897 18.5 20.1989 18.5 20ZM31.25 32H30.5V31.25C30.5 31.0511 30.421 30.8603 30.2803 30.7197C30.1397 30.579 29.9489 30.5 29.75 30.5C29.5511 30.5 29.3603 30.579 29.2196 30.7197C29.079 30.8603 29 31.0511 29 31.25V32H28.25C28.0511 32 27.8603 32.079 27.7196 32.2197C27.579 32.3603 27.5 32.5511 27.5 32.75C27.5 32.9489 27.579 33.1397 27.7196 33.2803C27.8603 33.421 28.0511 33.5 28.25 33.5H29V34.25C29 34.4489 29.079 34.6397 29.2196 34.7803C29.3603 34.921 29.5511 35 29.75 35C29.9489 35 30.1397 34.921 30.2803 34.7803C30.421 34.6397 30.5 34.4489 30.5 34.25V33.5H31.25C31.4489 33.5 31.6397 33.421 31.7803 33.2803C31.921 33.1397 32 32.9489 32 32.75C32 32.5511 31.921 32.3603 31.7803 32.2197C31.6397 32.079 31.4489 32 31.25 32ZM36.5 27.5H35V26C35 25.8011 34.921 25.6103 34.7803 25.4697C34.6397 25.329 34.4489 25.25 34.25 25.25C34.0511 25.25 33.8603 25.329 33.7196 25.4697C33.579 25.6103 33.5 25.8011 33.5 26V27.5H32C31.8011 27.5 31.6103 27.579 31.4696 27.7197C31.329 27.8603 31.25 28.0511 31.25 28.25C31.25 28.4489 31.329 28.6397 31.4696 28.7803C31.6103 28.921 31.8011 29 32 29H33.5V30.5C33.5 30.6989 33.579 30.8897 33.7196 31.0303C33.8603 31.171 34.0511 31.25 34.25 31.25C34.4489 31.25 34.6397 31.171 34.7803 31.0303C34.921 30.8897 35 30.6989 35 30.5V29H36.5C36.6989 29 36.8897 28.921 37.0303 28.7803C37.171 28.6397 37.25 28.4489 37.25 28.25C37.25 28.0511 37.171 27.8603 37.0303 27.7197C36.8897 27.579 36.6989 27.5 36.5 27.5ZM34.5603 21.5L21.5 34.5603C21.2187 34.8414 20.8373 34.9993 20.4397 34.9993C20.042 34.9993 19.6606 34.8414 19.3794 34.5603L17.4387 32.6216C17.2994 32.4823 17.1889 32.3169 17.1135 32.1349C17.0381 31.9529 16.9993 31.7578 16.9993 31.5608C16.9993 31.3638 17.0381 31.1687 17.1135 30.9867C17.1889 30.8047 17.2994 30.6393 17.4387 30.5L30.5 17.4397C30.6393 17.3004 30.8046 17.1898 30.9867 17.1144C31.1687 17.039 31.3637 17.0002 31.5608 17.0002C31.7578 17.0002 31.9529 17.039 32.1349 17.1144C32.3169 17.1898 32.4822 17.3004 32.6215 17.4397L34.5603 19.3784C34.6996 19.5177 34.8101 19.6831 34.8855 19.8651C34.9609 20.0471 34.9998 20.2422 34.9998 20.4392C34.9998 20.6362 34.9609 20.8313 34.8855 21.0133C34.8101 21.1953 34.6996 21.3607 34.5603 21.5ZM29.4387 24.5L27.5 22.5603L18.5 31.5603L20.4387 33.5L29.4387 24.5ZM33.5 20.4397L31.5603 18.5L28.5603 21.5L30.5 23.4397L33.5 20.4397Z" fill="#EA0558"/>
</svg>
