<svg width="19" height="20" viewBox="0 0 19 20" fill="none" xmlns="http://www.w3.org/2000/svg">
<path d="M2.375 18.3333C2.375 17.8731 2.72944 17.5 3.16667 17.5H15.8333C16.2706 17.5 16.625 17.8731 16.625 18.3333C16.625 18.7936 16.2706 19.1667 15.8333 19.1667H3.16667C2.72944 19.1667 2.375 18.7936 2.375 18.3333Z" fill="#7B7D8D"/>
<path fill-rule="evenodd" clip-rule="evenodd" d="M13.2265 2.60117C12.9173 2.27574 12.416 2.27574 12.1069 2.60117L11.4113 3.33338L14.25 6.32154L14.9456 5.58933C15.2548 5.26389 15.2548 4.73626 14.9456 4.41082L13.2265 2.60117ZM5.47378 9.58338L10.2917 4.51189L13.1304 7.50005L8.31253 12.5715L5.47378 9.58338ZM4.35419 10.7619L3.95833 11.1786V14.1667H6.79708L7.19294 13.75L4.35419 10.7619ZM10.9873 1.42266C11.9148 0.446352 13.4186 0.446352 14.346 1.42266L16.0652 3.23231C16.9927 4.20862 16.9927 5.79153 16.0652 6.76784L7.91667 15.3453C7.61973 15.6578 7.21701 15.8334 6.79708 15.8334H3.95833C3.08388 15.8334 2.375 15.0872 2.375 14.1667V11.1786C2.375 10.7366 2.54182 10.3126 2.83875 10.0001L10.9873 1.42266Z" fill="#7B7D8D"/>
</svg>
