<svg width="16" height="16" viewBox="0 0 16 16" fill="none" xmlns="http://www.w3.org/2000/svg">
<path d="M2.76399 5.28501V5.86676H13.2403V5.28501C13.2401 5.15745 13.2148 5.03117 13.1657 4.91341C13.1167 4.79564 13.0449 4.68869 12.9545 4.59868C12.8641 4.50867 12.7568 4.43736 12.6388 4.38883C12.5208 4.3403 12.3944 4.31551 12.2668 4.31586H11.4944V4.51023C11.4944 4.66452 11.4331 4.81249 11.324 4.9216C11.2149 5.0307 11.0668 5.09199 10.9125 5.09199C10.7582 5.09199 10.6101 5.0307 10.501 4.9216C10.3919 4.81249 10.3306 4.66452 10.3306 4.51023V4.31586H5.67369V4.51023C5.67369 4.66452 5.61238 4.81249 5.50324 4.9216C5.39411 5.0307 5.24609 5.09199 5.09175 5.09199C4.93741 5.09199 4.78939 5.0307 4.68025 4.9216C4.57112 4.81249 4.50981 4.66452 4.50981 4.51023V4.31586H3.73344C3.47643 4.31622 3.23005 4.41844 3.04832 4.60011C2.8666 4.78179 2.76434 5.02808 2.76399 5.28501ZM2.76399 7.03028V12.2634C2.76434 12.5203 2.8666 12.7666 3.04832 12.9483C3.23005 13.13 3.47643 13.2322 3.73344 13.2325H12.2668C12.3944 13.2329 12.5208 13.2081 12.6388 13.1596C12.7568 13.111 12.8641 13.0397 12.9545 12.9497C13.0449 12.8597 13.1167 12.7528 13.1657 12.635C13.2148 12.5172 13.2401 12.391 13.2403 12.2634V7.03028H2.76399ZM1.6001 5.28501C1.59993 5.00489 1.65499 4.72749 1.76213 4.46866C1.86928 4.20984 2.02641 3.97467 2.22455 3.77659C2.42268 3.57852 2.65793 3.42144 2.91683 3.31433C3.17574 3.20721 3.45323 3.15217 3.73344 3.15235H4.50981V2.18185C4.50981 2.02756 4.57112 1.87959 4.68025 1.77049C4.78939 1.66139 4.93741 1.6001 5.09175 1.6001C5.24609 1.6001 5.39411 1.66139 5.50324 1.77049C5.61238 1.87959 5.67369 2.02756 5.67369 2.18185V3.15235H10.3306V2.18185C10.3306 2.02756 10.3919 1.87959 10.501 1.77049C10.6101 1.66139 10.7582 1.6001 10.9125 1.6001C11.0668 1.6001 11.2149 1.66139 11.324 1.77049C11.4331 1.87959 11.4944 2.02756 11.4944 2.18185V3.15235H12.2668C12.547 3.15217 12.8245 3.20721 13.0834 3.31433C13.3423 3.42144 13.5775 3.57852 13.7756 3.77659C13.9738 3.97467 14.1309 4.20984 14.2381 4.46866C14.3452 4.72749 14.4003 5.00489 14.4001 5.28501V12.2634C14.4008 12.5438 14.3461 12.8217 14.2392 13.081C14.1323 13.3403 13.9753 13.5759 13.7771 13.7744C13.5789 13.9729 13.3435 14.1304 13.0843 14.2377C12.8251 14.3451 12.5473 14.4003 12.2668 14.4001H3.73344C3.45289 14.4003 3.17507 14.3451 2.9159 14.2377C2.65673 14.1304 2.4213 13.9729 2.22311 13.7744C2.02492 13.5759 1.86788 13.3403 1.76097 13.081C1.65406 12.8217 1.59939 12.5438 1.6001 12.2634V5.28501Z" fill="#666666"/>
</svg>
