<svg xmlns="http://www.w3.org/2000/svg" viewBox="249 166 41.75 38.21">
	<path d="M267.998,204.214 L268.004,204.214 C268.554,204.214 269.001,203.77 269.004,203.22 C269.007,202.668 268.562,202.217 268.01,202.214 C263.477,202.187 259.217,200.407 256.012,197.202 C252.779,193.97 251,189.673 251,185.103 C251,180.532 252.779,176.235 256.012,173.003 C262.684,166.332 273.539,166.332 280.211,173.003 C281.647,174.438 282.804,176.093 283.647,177.92 C283.879,178.421 284.473,178.641 284.976,178.408 C285.477,178.177 285.695,177.583 285.464,177.081 C284.519,175.039 283.228,173.191 281.625,171.589 C274.174,164.137 262.049,164.137 254.598,171.589 C250.987,175.198 249,179.998 249,185.103 C249,190.208 250.987,195.007 254.598,198.616 C258.177,202.196 262.936,204.184 267.998,204.214 Z M267.7363,173.1237 L267.7363,184.0777 C267.7303,184.0827 267.7223,184.0827 267.7153,184.0877 L261.3773,189.1227 C260.9443,189.4657 260.8723,190.0947 261.2153,190.5277 C261.4133,190.7757 261.7053,190.9057 262.0003,190.9057 C262.2173,190.9057 262.4373,190.8347 262.6213,190.6887 L268.9603,185.6547 C269.1973,185.4657 269.3143,185.1907 269.3253,184.9097 C269.5693,184.7277 269.7363,184.4507 269.7363,184.1237 L269.7363,173.1237 C269.7363,172.5717 269.2893,172.1237 268.7363,172.1237 C268.1833,172.1237 267.7363,172.5717 267.7363,173.1237 Z M271.929,201.1668 C272.117,201.3558 272.372,201.4598 272.636,201.4598 C272.663,201.4598 272.691,201.4588 272.719,201.4568 L278.747,200.9528 C278.831,200.9748 278.914,201.0028 279.002,201.0028 C279.268,201.0028 279.521,200.8978 279.709,200.7098 L288.063,192.3558 L289.697,190.7218 C291.1,189.3188 291.1,187.0358 289.697,185.6328 L287.47,183.4048 C286.107,182.0418 283.728,182.0408 282.363,183.4048 L280.738,185.0298 L272.384,193.3848 C272.119,193.6498 272.049,194.0228 272.143,194.3598 L271.64,200.3768 C271.614,200.6698 271.721,200.9588 271.929,201.1668 Z M273.979,196.3938 L276.701,199.1168 L273.73,199.3648 L273.979,196.3938 Z M281.445,187.1508 L283.034,188.7398 L276.167,195.6078 L274.578,194.0188 L281.445,187.1508 Z M283.777,184.8188 C284.406,184.1928 285.427,184.1908 286.056,184.8188 L288.283,187.0468 C288.906,187.6698 288.906,188.6848 288.283,189.3078 L287.356,190.2348 L285.108,187.9858 L282.859,185.7368 L283.777,184.8188 Z M279.075,198.5158 L277.581,197.0218 L284.448,190.1548 L285.942,191.6488 L279.075,198.5158 Z" fill="#FF621D"/>
</svg>