<svg width="20" height="20" viewBox="0 0 20 20" fill="none" xmlns="http://www.w3.org/2000/svg">
<path d="M1.33398 10.0021V10.0003C1.33398 5.2135 5.21419 1.33331 10.0004 1.33331C14.7866 1.33331 18.6668 5.2135 18.6668 10.0003C18.6668 14.7865 14.7866 18.6667 10.0004 18.6667C5.21599 18.6667 1.33578 14.7877 1.33398 10.0021ZM8.62759 3.05833C5.30959 3.7123 2.91559 6.61871 2.90899 10.0003C2.90059 11.8837 3.64699 13.6921 4.98079 15.0217C7.36938 17.4151 11.1158 17.7883 13.9298 15.9133C16.7438 14.0383 17.8418 10.4365 16.5524 7.31051C15.4418 4.618 12.8258 2.92393 10.0019 2.92377C9.54727 2.92373 9.08762 2.96763 8.62759 3.05833ZM9.48379 10.7227C9.34099 10.5757 9.26419 10.3777 9.26958 10.1731V5.1829C9.26958 4.7797 9.59599 4.45331 9.99859 4.45331C10.4018 4.45331 10.7282 4.7797 10.7282 5.1829V9.38772L13.3244 9.39671C13.5296 9.39071 13.7288 9.46692 13.877 9.60911C14.0258 9.75071 14.111 9.94631 14.114 10.1515C14.1152 10.3537 14.0342 10.5475 13.8896 10.6891C13.7444 10.8301 13.5488 10.9069 13.3466 10.9009L10.0262 10.9537C9.82159 10.9531 9.62599 10.8697 9.48379 10.7227Z" fill="#EA0558" stroke="#EA0558" stroke-width="0.2"/>
</svg>
