<svg width="24" height="24" viewBox="0 0 24 24" fill="none" xmlns="http://www.w3.org/2000/svg">
<path d="M5.24987 7.125C5.24987 5.63316 5.8425 4.20242 6.8974 3.14752C7.95229 2.09263 9.38303 1.5 10.8749 1.5C12.3667 1.5 13.7975 2.09263 14.8523 3.14752C15.9072 4.20242 16.4999 5.63316 16.4999 7.125C16.4999 7.32391 16.4209 7.51468 16.2802 7.65533C16.1395 7.79598 15.9488 7.875 15.7499 7.875C15.551 7.875 15.3602 7.79598 15.2195 7.65533C15.0789 7.51468 14.9999 7.32391 14.9999 7.125C14.9999 6.03098 14.5653 4.98177 13.7917 4.20818C13.0181 3.4346 11.9689 3 10.8749 3C9.78085 3 8.73164 3.4346 7.95806 4.20818C7.18447 4.98177 6.74987 6.03098 6.74987 7.125C6.74987 7.32391 6.67085 7.51468 6.5302 7.65533C6.38955 7.79598 6.19878 7.875 5.99987 7.875C5.80096 7.875 5.61019 7.79598 5.46954 7.65533C5.32889 7.51468 5.24987 7.32391 5.24987 7.125ZM18.3749 11.25C17.9374 11.2495 17.5067 11.3588 17.1224 11.5678C17.0075 11.2124 16.8181 10.8856 16.5669 10.6092C16.3157 10.3329 16.0083 10.1133 15.6654 9.96517C15.3225 9.81707 14.952 9.74384 14.5786 9.75039C14.2051 9.75693 13.8374 9.8431 13.4999 10.0031V7.125C13.4999 6.42881 13.2233 5.76113 12.731 5.26884C12.2387 4.77656 11.5711 4.5 10.8749 4.5C10.1787 4.5 9.511 4.77656 9.01872 5.26884C8.52643 5.76113 8.24987 6.42881 8.24987 7.125V14.625L7.89175 14.0503C7.54154 13.4485 6.96659 13.0104 6.2934 12.8325C5.6202 12.6546 4.90389 12.7514 4.30206 13.1016C3.70022 13.4518 3.26216 14.0267 3.08424 14.6999C2.90631 15.3731 3.0031 16.0894 3.35331 16.6912L6.10206 21.3787C6.14816 21.47 6.21244 21.5509 6.29096 21.6165C6.36948 21.682 6.46058 21.7308 6.55864 21.7598C6.65671 21.7889 6.75968 21.7975 6.86122 21.7853C6.96276 21.7731 7.06073 21.7402 7.1491 21.6887C7.23747 21.6372 7.31438 21.5682 7.37509 21.4859C7.43581 21.4036 7.47905 21.3098 7.50215 21.2101C7.52526 21.1105 7.52775 21.0072 7.50946 20.9066C7.49117 20.806 7.45249 20.7101 7.39581 20.625L4.64987 15.9375C4.57278 15.8095 4.52197 15.6673 4.50043 15.5194C4.47888 15.3715 4.48702 15.2208 4.52437 15.0761C4.56172 14.9314 4.62754 14.7955 4.71797 14.6765C4.80841 14.5575 4.92165 14.4578 5.05108 14.383C5.18051 14.3083 5.32354 14.2601 5.47181 14.2412C5.62008 14.2224 5.77062 14.2333 5.91464 14.2732C6.05865 14.3132 6.19326 14.3815 6.31059 14.4741C6.42792 14.5667 6.52562 14.6817 6.598 14.8125L6.61112 14.8341L8.36237 17.6466C8.44835 17.7853 8.57725 17.8922 8.7295 17.951C8.88175 18.0099 9.04904 18.0175 9.20598 17.9726C9.36292 17.9277 9.50094 17.8329 9.5991 17.7025C9.69726 17.5721 9.75019 17.4132 9.74987 17.25V7.125C9.74987 6.82663 9.8684 6.54048 10.0794 6.3295C10.2904 6.11853 10.5765 6 10.8749 6C11.1732 6 11.4594 6.11853 11.6704 6.3295C11.8813 6.54048 11.9999 6.82663 11.9999 7.125V13.5C11.9999 13.6989 12.0789 13.8897 12.2195 14.0303C12.3602 14.171 12.551 14.25 12.7499 14.25C12.9488 14.25 13.1395 14.171 13.2802 14.0303C13.4209 13.8897 13.4999 13.6989 13.4999 13.5V12.375C13.4999 12.0766 13.6184 11.7905 13.8294 11.5795C14.0404 11.3685 14.3265 11.25 14.6249 11.25C14.9232 11.25 15.2094 11.3685 15.4204 11.5795C15.6313 11.7905 15.7499 12.0766 15.7499 12.375V14.25C15.7499 14.4489 15.8289 14.6397 15.9695 14.7803C16.1102 14.921 16.301 15 16.4999 15C16.6988 15 16.8895 14.921 17.0302 14.7803C17.1709 14.6397 17.2499 14.4489 17.2499 14.25V13.875C17.2499 13.5766 17.3684 13.2905 17.5794 13.0795C17.7904 12.8685 18.0765 12.75 18.3749 12.75C18.6732 12.75 18.9594 12.8685 19.1704 13.0795C19.3813 13.2905 19.4999 13.5766 19.4999 13.875V17.25C19.4999 19.2759 18.8342 20.6531 18.8286 20.6644C18.7398 20.8423 18.7252 21.0482 18.7882 21.2368C18.8511 21.4255 18.9864 21.5814 19.1642 21.6703C19.2683 21.7229 19.3833 21.7502 19.4999 21.75C19.6392 21.7501 19.7758 21.7114 19.8944 21.6382C20.0129 21.565 20.1088 21.4602 20.1711 21.3356C20.2058 21.2672 21.0008 19.6481 21.0008 17.25V13.875C21.0008 13.5302 20.9329 13.1888 20.8009 12.8702C20.6689 12.5517 20.4755 12.2623 20.2316 12.0185C19.9878 11.7747 19.6983 11.5814 19.3797 11.4495C19.0611 11.3177 18.7197 11.2499 18.3749 11.25Z" fill="#EA0558"/>
</svg>
