<svg width="48" height="48" viewBox="0 0 48 48" fill="none" xmlns="http://www.w3.org/2000/svg">
<rect width="48" height="48" rx="24" fill="#FFEAF1"/>
<path d="M17.25 19.125C17.25 17.6332 17.8426 16.2024 18.8975 15.1475C19.9524 14.0926 21.3832 13.5 22.875 13.5C24.3668 13.5 25.7976 14.0926 26.8525 15.1475C27.9074 16.2024 28.5 17.6332 28.5 19.125C28.5 19.3239 28.421 19.5147 28.2803 19.6553C28.1397 19.796 27.9489 19.875 27.75 19.875C27.5511 19.875 27.3603 19.796 27.2197 19.6553C27.079 19.5147 27 19.3239 27 19.125C27 18.031 26.5654 16.9818 25.7918 16.2082C25.0182 15.4346 23.969 15 22.875 15C21.781 15 20.7318 15.4346 19.9582 16.2082C19.1846 16.9818 18.75 18.031 18.75 19.125C18.75 19.3239 18.671 19.5147 18.5303 19.6553C18.3897 19.796 18.1989 19.875 18 19.875C17.8011 19.875 17.6103 19.796 17.4697 19.6553C17.329 19.5147 17.25 19.3239 17.25 19.125ZM30.375 23.25C29.9375 23.2495 29.5068 23.3588 29.1225 23.5678C29.0076 23.2124 28.8183 22.8856 28.567 22.6092C28.3158 22.3329 28.0084 22.1133 27.6656 21.9652C27.3227 21.8171 26.9521 21.7438 26.5787 21.7504C26.2052 21.7569 25.8375 21.8431 25.5 22.0031V19.125C25.5 18.4288 25.2234 17.7611 24.7311 17.2688C24.2389 16.7766 23.5712 16.5 22.875 16.5C22.1788 16.5 21.5111 16.7766 21.0188 17.2688C20.5266 17.7611 20.25 18.4288 20.25 19.125V26.625L19.8919 26.0503C19.5417 25.4485 18.9667 25.0104 18.2935 24.8325C17.6203 24.6546 16.904 24.7514 16.3022 25.1016C15.7003 25.4518 15.2623 26.0267 15.0844 26.6999C14.9064 27.3731 15.0032 28.0894 15.3534 28.6912L18.1022 33.3787C18.1483 33.47 18.2126 33.5509 18.2911 33.6165C18.3696 33.682 18.4607 33.7308 18.5588 33.7598C18.6568 33.7889 18.7598 33.7975 18.8613 33.7853C18.9629 33.7731 19.0609 33.7402 19.1492 33.6887C19.2376 33.6372 19.3145 33.5682 19.3752 33.4859C19.4359 33.4036 19.4792 33.3098 19.5023 33.2101C19.5254 33.1105 19.5279 33.0072 19.5096 32.9066C19.4913 32.806 19.4526 32.7101 19.3959 32.625L16.65 27.9375C16.5729 27.8095 16.5221 27.6673 16.5005 27.5194C16.479 27.3715 16.4871 27.2208 16.5245 27.0761C16.5618 26.9314 16.6277 26.7955 16.7181 26.6765C16.8085 26.5575 16.9218 26.4578 17.0512 26.383C17.1806 26.3083 17.3237 26.2601 17.4719 26.2412C17.6202 26.2224 17.7707 26.2333 17.9148 26.2732C18.0588 26.3132 18.1934 26.3815 18.3107 26.4741C18.428 26.5667 18.5257 26.6817 18.5981 26.8125L18.6112 26.8341L20.3625 29.6466C20.4485 29.7853 20.5774 29.8922 20.7296 29.951C20.8819 30.0099 21.0492 30.0175 21.2061 29.9726C21.363 29.9277 21.5011 29.8329 21.5992 29.7025C21.6974 29.5721 21.7503 29.4132 21.75 29.25V19.125C21.75 18.8266 21.8685 18.5405 22.0795 18.3295C22.2905 18.1185 22.5766 18 22.875 18C23.1734 18 23.4595 18.1185 23.6705 18.3295C23.8815 18.5405 24 18.8266 24 19.125V25.5C24 25.6989 24.079 25.8897 24.2197 26.0303C24.3603 26.171 24.5511 26.25 24.75 26.25C24.9489 26.25 25.1397 26.171 25.2803 26.0303C25.421 25.8897 25.5 25.6989 25.5 25.5V24.375C25.5 24.0766 25.6185 23.7905 25.8295 23.5795C26.0405 23.3685 26.3266 23.25 26.625 23.25C26.9234 23.25 27.2095 23.3685 27.4205 23.5795C27.6315 23.7905 27.75 24.0766 27.75 24.375V26.25C27.75 26.4489 27.829 26.6397 27.9697 26.7803C28.1103 26.921 28.3011 27 28.5 27C28.6989 27 28.8897 26.921 29.0303 26.7803C29.171 26.6397 29.25 26.4489 29.25 26.25V25.875C29.25 25.5766 29.3685 25.2905 29.5795 25.0795C29.7905 24.8685 30.0766 24.75 30.375 24.75C30.6734 24.75 30.9595 24.8685 31.1705 25.0795C31.3815 25.2905 31.5 25.5766 31.5 25.875V29.25C31.5 31.2759 30.8344 32.6531 30.8287 32.6644C30.7399 32.8423 30.7253 33.0482 30.7883 33.2368C30.8512 33.4255 30.9865 33.5814 31.1644 33.6703C31.2684 33.7229 31.3834 33.7502 31.5 33.75C31.6393 33.7501 31.7759 33.7114 31.8945 33.6382C32.0131 33.565 32.1089 33.4602 32.1712 33.3356C32.2059 33.2672 33.0009 31.6481 33.0009 29.25V25.875C33.0009 25.5302 32.933 25.1888 32.801 24.8702C32.669 24.5517 32.4756 24.2623 32.2318 24.0185C31.9879 23.7747 31.6984 23.5814 31.3798 23.4495C31.0612 23.3177 30.7198 23.2499 30.375 23.25Z" fill="#EA0558"/>
</svg>
