<svg width="20" height="20" viewBox="0 0 20 20" fill="none" xmlns="http://www.w3.org/2000/svg">
<path d="M13.7558 4.58398C14.11 4.58398 14.4392 4.78065 14.5683 5.11065C14.8544 5.83876 15.0008 6.6142 15 7.39648C15 8.85482 14.5008 10.1948 13.665 11.2582C13.5392 11.4182 13.3542 11.5157 13.165 11.589C12.7708 11.7415 12.4233 12.0173 12.155 12.359C11.5081 13.1843 10.6961 13.8655 9.77082 14.359C9.16832 14.679 8.64582 15.1557 8.39332 15.7882C8.21599 16.2313 8.12491 16.7042 8.12499 17.1815V17.709C8.12499 17.8747 8.05914 18.0337 7.94193 18.1509C7.82472 18.2681 7.66575 18.334 7.49999 18.334C7.00271 18.334 6.5258 18.1364 6.17417 17.7848C5.82253 17.4332 5.62499 16.9563 5.62499 16.459C5.62499 15.499 5.84166 14.5898 6.22749 13.7773C6.44916 13.3123 6.13832 12.709 5.62332 12.709H3.01832C2.16332 12.709 1.39749 12.1307 1.30666 11.2798C1.26916 10.9282 1.24999 10.5715 1.24999 10.209C1.24654 7.92869 2.02578 5.71629 3.45749 3.94148C3.78082 3.53982 4.27999 3.33398 4.79499 3.33398H8.14166C8.54416 3.33398 8.94499 3.39898 9.32749 3.52565L11.9225 4.39232C12.3049 4.5195 12.7053 4.58422 13.1083 4.58398H13.7558ZM18.0575 11.0615C18.5167 9.89423 18.7517 8.65083 18.75 7.39648C18.751 6.40624 18.605 5.42132 18.3167 4.47398C18.1 3.76565 17.4125 3.33398 16.6717 3.33398H15.9167C15.5458 3.33398 15.3167 3.74899 15.4808 4.08232C15.989 5.11309 16.2525 6.24724 16.2508 7.39648C16.2508 8.81982 15.8542 10.1507 15.1658 11.2848C14.9617 11.6207 15.1892 12.084 15.5825 12.084H16.4583C17.1517 12.084 17.8025 11.7065 18.0575 11.0615Z" fill="#242323"/>
</svg>
